<?xml version="1.0" encoding="utf-8"?>
<!-- Generator: Adobe Illustrator 26.2.1, SVG Export Plug-In . SVG Version: 6.00 Build 0)  -->
<svg version="1.1" id="Layer_1" xmlns="http://www.w3.org/2000/svg" xmlns:xlink="http://www.w3.org/1999/xlink" x="0px" y="0px"
	 viewBox="0 0 512 512" style="enable-background:new 0 0 512 512;" xml:space="preserve">
<style type="text/css">
	.st0{fill:#E59328;}
	.st1{fill:#7A2F18;}
	.st2{fill:#DB1D1D;}
	.st3{fill:#FF473E;}
	.st4{fill:#00B89C;}
	.st5{fill:#FECB21;}
	.st6{fill:#FFCD7D;}
</style>
<path class="st0" d="M484.9,397.7c0,19.9-11.4,38.1-29.4,46.7c-34,16.2-98.7,38-200.8,38c-8.9,0-17.6-0.2-26-0.5
	c42.1-20.1,36.2-57.6,29.8-76.8c-2.4-7.3-4.9-11.9-4.9-11.9c25.8-6.3,42-15.2,51.5-25.4c6.5-6.9,10-14.4,11.3-22h116.6
	c12.8,0,24.5,4.6,33.6,12.3C477.8,367.7,484.9,381.9,484.9,397.7z"/>
<path class="st1" d="M482.9,319.6c0,0.3,0,0.6,0,0.9c0,14.5-6,28.1-16.3,37.8c-3.8,3.6-8.2,6.6-13.1,9c-33.3,15.9-96.2,37.2-195,38
	c-2.4-7.3-4.9-11.9-4.9-11.9c25.8-6.3,42-15.2,51.5-25.4c6.5-6.9,10-14.4,11.3-22c0.4-2.2,0.5-4.3,0.6-6.5
	c0.2-12.8-4.9-25.5-10.9-35.9c-4-7-8.5-13-12-17.3c-2.9-3.6-5.2-6-5.9-6.8c-0.2-0.2-0.3-0.3-0.3-0.3c15.7-15.6,25-29.5,29.7-41.8
	c33.5,3.4,61.5,9.2,84.3,15.7c6.8,1.9,13.1,4,19,6c1.5,0.5,3,1,4.5,1.6c11,3.9,20.4,7.9,28.1,11.6c1.6,0.8,3.1,1.6,4.6,2.5
	c0.8,0.4,1.5,0.9,2.2,1.4c2.3,1.6,4.5,3.4,6.5,5.3c3.7,3.5,6.8,7.5,9.3,11.9c4.3,7.7,6.8,16.5,6.8,25.6
	C482.9,319,482.9,319.3,482.9,319.6z"/>
<path class="st2" d="M469.3,297.7c0,18.5-20.6,35.4-54.3,48.2c-28.6,10.8-66.7,18.7-109.8,22c6.5-6.9,10-14.4,11.3-22
	c0.4-2.2,0.5-4.3,0.6-6.5c0.2-12.8-4.9-25.5-10.9-35.9c-4-7-8.5-13-12-17.3c-2.9-3.6-5.2-6-5.9-6.8c-0.2-0.2-0.3-0.3-0.3-0.3
	c15.7-15.6,25-29.5,29.7-41.8c1.1-2.9,1.9-5.7,2.5-8.4c44.2,4.6,82.2,14.1,108.8,26.5c12.4,5.8,22.3,12.2,29.2,19.2
	c0.5,0.5,0.9,0.9,1.3,1.3c2.5,2.6,4.5,5.4,6,8.1c2.4,4.2,3.7,8.6,3.8,13.1C469.3,297.3,469.3,297.5,469.3,297.7z"/>
<path class="st3" d="M469.3,270.3c0,2.1-0.3,4.1-0.8,6.2c-0.4,1.6-0.9,3.2-1.6,4.8c-0.4,0.9-0.9,1.8-1.4,2.8
	c-6.1,10.7-19.1,20.6-37.5,29.1c-27.2,12.5-66,21.9-110.9,26.4c0.2-12.8-4.9-25.5-10.9-35.9c-4-7-8.5-13-12-17.3
	c-2.9-3.6-5.2-6-5.9-6.8c-0.2-0.2-0.3-0.3-0.3-0.3c15.7-15.6,25-29.5,29.7-41.8c1.1-2.9,1.9-5.7,2.5-8.4c1-4.3,1.3-8.4,1.2-12.2
	c-0.2-5.6-1.4-10.7-3.4-15.5c16.1,1.6,31.5,3.9,45.7,6.7c0.5,0.1,1,0.2,1.5,0.3c8,1.6,15.7,3.4,23,5.3c28,7.5,50.3,17.3,64.4,28.6
	C463.3,250.7,469.3,260.3,469.3,270.3z"/>
<path class="st4" d="M487,224.9c-3.5-2-7.3-3.7-11.2-5.4c-3-1.2-6-2.3-9.2-3.4c-21.5-7-47-10-70.1-10c-2.6,0-5.2,0-7.8,0.1
	c-7.9,0.2-15.8,0.9-23.6,1.8c-0.5,0.1-1,0.1-1.5,0.2c-5.9,0.8-11.7,1.7-17.4,2.9c-8.3,1.7-16.5,3.7-24.8,5.3
	c0.1,3.8-0.2,7.9-1.2,12.2c-0.6,2.7-1.4,5.5-2.5,8.4c-4.7,12.3-14,26.2-29.7,41.8c0,0,0.1,0.1,0.3,0.3c0.8,0.8,3,3.2,5.9,6.8
	c3.5,4.3,8,10.3,12,17.3c3.6-3.2,11.1-11.6,14.1-10.2c9.3,4.9,18.5,10.1,28.6,14.3c14,5.8,30.5,9.3,47.1,9.3c11,0,21.7-1.4,32-3.8
	c15-3.6,29-9.3,41.3-16c2.4-1.3,4.7-2.6,6.9-3.9c1.4-0.9,2.8-1.8,4.2-2.6c11.5-7.4,22.2-17.2,25.4-27.7
	C509.9,248.8,503.9,234.3,487,224.9z M409.9,253.2c5.9,0.7,11.7,1.6,17.5,2.8c1.3,0.3,2.5,0.5,3.8,0.8c-1.9,1.2-3.8,2.4-5.8,3.6
	c-1.2,0.7-2.4,1.4-3.6,2c-5.1,2.4-10.4,4.5-16,6.4c-2.5,0.6-5,1-7.5,1.4c-1.3,0-2.6,0-3.9,0c-1.2-0.2-2.5-0.4-3.7-0.7
	c-0.1,0-0.1,0-0.1,0c-4.5-1.5-8.7-3.3-12.7-5.3c-4.8-2.5-9.5-5.2-14.4-7.7c6.6-1.4,13.3-2.5,20.2-3.4c6.1-0.4,12.2-0.5,18.3-0.3
	C404.6,253,407.2,253.1,409.9,253.2z"/>
<path class="st5" d="M483.1,262.1c0,8.1-6.7,14.5-14.7,14.3c-0.3,0-0.5,0-0.8,0c-2.5-0.2-5-0.3-7.4-0.5c-0.3,0-0.6,0-0.9-0.1
	c-30.3-2-58-2.7-83.2-2.4c-33.5,0.4-62.6,2.5-88,5.9c-0.2-0.2-0.3-0.3-0.3-0.3c15.7-15.6,25-29.5,29.7-41.8c1.1-2.9,1.9-5.7,2.5-8.4
	c1-4.3,1.3-8.4,1.2-12.2c-0.2-5.6-1.4-10.7-3.4-15.5c-2.7-6.3-6.7-11.9-11.5-16.8c35.6-6,60.1-10.1,60.1-10.1
	c55.1,5.8,84.7,23.1,100.2,41.9c2.2,2.7,4.1,5.3,5.8,8C481,238.1,483.1,252,483.1,262.1z"/>
<path class="st0" d="M482.9,197.1c0,7.7-2.5,15.3-7.1,22.4c-1,1.6-2.1,3.1-3.4,4.7c-5,6.3-11.7,12.3-19.9,17.9
	c-6.9,4.7-14.8,9.1-23.6,13.2c-0.5,0.2-1,0.5-1.5,0.7c-2.1,1-4.2,1.9-6.4,2.8c-9.3,3.9-19.4,7.5-30.3,10.7
	c-4.7,1.4-9.5,2.7-14.5,3.9c-24.6,6.2-52.3,10.5-82.1,12.7c-2.9-3.6-5.2-6-5.9-6.8c-0.2-0.2-0.3-0.3-0.3-0.3
	c15.7-15.6,25-29.5,29.7-41.8c1.1-2.9,1.9-5.7,2.5-8.4c1-4.3,1.3-8.4,1.2-12.2c-0.2-5.6-1.4-10.7-3.4-15.5
	c-2.7-6.3-6.7-11.9-11.5-16.8c-19.9-20.3-52.7-28.6-52.7-28.6c25.9-74.4,1.9-111.2-24.8-129.3c7.9-0.7,15.8-1,23.9-1
	C375.9,25.6,482.9,106,482.9,197.1z"/>
<path class="st6" d="M327.2,86.1l-9.7-20.9c-1.2-2.5-3.1-4.6-5.6-5.9c-6.2-3.3-13.9-0.9-17.2,5.3c-3.3,6.2-0.9,13.9,5.3,17.2
	l20.4,10.8c1.4,0.7,3,0.8,4.4,0.1C327.3,91.5,328.4,88.5,327.2,86.1z M424.4,123.6c-6.6-3-14.5-0.1-17.5,6.5l-7.5,16.3
	c-1.2,2.6,0,5.6,2.5,6.8c1.1,0.5,2.4,0.6,3.6,0.2l17.1-5.1c3.5-1.1,6.6-3.6,8.2-7.1C434,134.5,431,126.7,424.4,123.6z M388.7,206.3
	c-0.2-0.8-0.4-1.7-0.8-2.5l-9.2-21.1c-0.6-1.4-1.9-2.4-3.3-2.8c-2.6-0.6-5.3,1-6,3.6l-5.5,22.4c-0.2,0.6-0.3,1.3-0.3,1.9
	c0,0.2,0,0.3,0,0.5c-0.1,1.9,0.3,3.9,1.1,5.6c2.8,6.4,10.3,9.4,16.7,6.6c3.2-1.4,5.6-4,6.8-7.1C389,211.3,389.2,208.8,388.7,206.3z
	 M299,142l-21.6-7.9c-1.4-0.5-3.1-0.4-4.4,0.5c-2.3,1.5-3,4.5-1.5,6.8l12.4,19.4c1.5,2.3,3.7,4.1,6.3,5.1c6.6,2.4,13.9-1,16.3-7.5
	C309,151.7,305.6,144.4,299,142z"/>
</svg>
