<?xml version="1.0" encoding="utf-8"?>
<!-- Generator: Adobe Illustrator 26.2.1, SVG Export Plug-In . SVG Version: 6.00 Build 0)  -->
<svg version="1.1" id="Capa_1" xmlns="http://www.w3.org/2000/svg" xmlns:xlink="http://www.w3.org/1999/xlink" x="0px" y="0px"
	 viewBox="0 0 482.8 482.8" style="enable-background:new 0 0 482.8 482.8;" xml:space="preserve">
<style type="text/css">
	.st0{fill:#C9C9C9;}
	.st1{fill:#FFE6D2;}
	.st2{fill:#E2E2E2;}
	.st3{fill:#939393;}
	.st4{fill:#2E4756;}
	.st5{fill:#AAAAAA;}
	.st6{fill:#55BEBE;}
</style>
<polygon class="st0" points="145.4,79.3 81.4,79.3 81.4,151.4 145.4,105 "/>
<rect x="449.4" y="252.7" class="st1" width="0" height="146.6"/>
<polygon class="st2" points="401.4,217.9 401.4,399.3 81.4,399.3 81.4,217.9 241.4,102.1 "/>
<path class="st3" d="M465.4,431.3h-8h-432h-8c-4.4,0-8,3.6-8,8s3.6,8,8,8h448c4.4,0,8-3.6,8-8S469.8,431.3,465.4,431.3z"/>
<rect x="73.4" y="47.3" class="st4" width="80" height="32"/>
<polygon class="st5" points="457.4,431.3 457.4,399.3 449.4,399.3 449.4,399.3 401.4,399.3 81.4,399.3 33.4,399.3 25.4,399.3 
	25.4,431.3 "/>
<polygon class="st0" points="81.4,399.3 81.4,217.9 33.4,252.7 33.4,225.6 33.4,225.6 33.4,399.3 "/>
<polygon class="st0" points="401.4,217.9 401.4,399.3 449.4,399.3 449.4,252.7 "/>
<polygon class="st5" points="241.4,75 33.4,225.6 33.4,252.7 81.4,217.9 241.4,102.1 401.4,217.9 449.4,252.7 449.4,252.7 
	449.4,225.6 "/>
<polygon class="st4" points="241.4,75 449.4,225.6 464,236.2 482.8,210.3 241.4,35.5 145.4,105 81.4,151.4 0,210.3 18.8,236.2 
	33.4,225.6 33.4,225.6 "/>
<g>
	<path class="st4" d="M159.6,300.2V370h-13.5v-29.8h-31.6V370H101v-69.7h13.6v28.2h31.6v-28.2H159.6z"/>
	<path class="st4" d="M203.9,370.4c-5.1,0-9.7-1-13.8-2.9c-4.1-2-7.7-4.6-10.7-8c-3-3.4-5.3-7.2-7-11.4c-1.6-4.2-2.5-8.6-2.5-13
		c0-4.6,0.9-9.1,2.6-13.3c1.7-4.2,4.1-8,7.2-11.3c3-3.3,6.7-5.9,10.9-7.9c4.2-1.9,8.7-2.9,13.7-2.9c5,0,9.6,1,13.8,3
		c4.2,2,7.7,4.7,10.7,8.2c2.9,3.4,5.2,7.2,6.8,11.4c1.6,4.2,2.4,8.5,2.4,13c0,4.6-0.8,9-2.5,13.2c-1.7,4.2-4,8-7.1,11.3
		c-3,3.3-6.6,5.9-10.8,7.8C213.4,369.5,208.8,370.4,203.9,370.4z M183.7,335.1c0,3,0.5,5.9,1.4,8.7c0.9,2.8,2.2,5.3,4,7.5
		c1.7,2.2,3.9,3.9,6.4,5.2c2.5,1.3,5.4,1.9,8.6,1.9c3.3,0,6.3-0.7,8.7-2c2.5-1.3,4.6-3.1,6.3-5.4c1.7-2.2,3-4.7,3.9-7.6
		c0.9-2.8,1.3-5.6,1.3-8.4c0-3-0.5-5.9-1.4-8.7c-0.9-2.8-2.3-5.3-4-7.5c-1.8-2.2-3.9-3.9-6.4-5.2c-2.5-1.3-5.3-1.9-8.5-1.9
		c-3.2,0-6.1,0.7-8.6,2c-2.5,1.3-4.6,3.1-6.4,5.3c-1.7,2.2-3,4.7-3.9,7.5C184.1,329.4,183.7,332.2,183.7,335.1z"/>
	<path class="st4" d="M305.4,370v-45.8l-18,34.1h-7.6L262,324.2V370h-13.6v-69.7H263l20.5,39.6l20.7-39.6h14.5V370H305.4z"/>
	<path class="st4" d="M381.8,358.1V370h-48.4v-69.7h47.5v11.9h-34v16.8h29.3v11h-29.3v18.2H381.8z"/>
</g>
<circle class="st6" cx="241.4" cy="217.9" r="53"/>
</svg>
