<svg xmlns="http://www.w3.org/2000/svg" viewBox="0 0 306.84 306.84"><defs><style>.cls-1{fill:none;}.cls-2{fill:#fff;}</style></defs><g id="Layer_2" data-name="Layer 2"><g id="Layer_1-2" data-name="Layer 1"><rect class="cls-1" width="306.84" height="306.84"/><path class="cls-2" d="M8.9,134.22c10.2,11.65,7,26.31,12.46,39.46,8.14,21.34,25.39,29.7,46.89,31,42.09,2.67,65.95-23.13,75.53-59.49,2-11,18-10.56,20,.2a178,178,0,0,0,7,19c22.44,54.78,109.5,55.77,119-2.76,1.58-10.22,2.27-18.82,8.25-28C324.37,351.52-13.14,356.44,8.9,134.22Z"/><path class="cls-2" d="M213.94,19.64c8.6,5.45,13.26,45.38-4.13,55.54,0,0,29.88-5.58,25.55-39.15,0,0,19.63,20-2,40.92,0,0,23.32-4.61,26.5-25.05,16.2,16.88,27.32,36.55,32.71,55.35-42.48-6.16-85.08-4.78-126.43,6.94a45.2,45.2,0,0,1-24.39,0c-41.61-11.93-83.65-12.69-126.36-7.33,3.1-19.14,14.49-38,30.83-54.11,31.86-9.34,180.69-69.31,157.63-.55,0,0,8.82-9,10.12-32.6"/><path class="cls-2" d="M79.68,193.86c-44-.85-46-16.56-51.36-55.15C21.81,110,84.61,114,101.56,118.11c24,6,27.85,11.51,23.68,35.73A44,44,0,0,1,79.68,193.86Z"/><path class="cls-2" d="M229.13,193.42c-25,1.14-41.6-12.52-46.69-38.64-2.43-12-4.35-27,9.86-32,15.93-9,86.6-14.86,86.82,11.08a85.54,85.54,0,0,1-8.58,42.63C262.8,192.74,244.63,192.76,229.13,193.42Z"/></g></g></svg>