<?xml version='1.0' encoding='iso-8859-1'?>
<!DOCTYPE svg PUBLIC '-//W3C//DTD SVG 1.1//EN' 'http://www.w3.org/Graphics/SVG/1.1/DTD/svg11.dtd'>
<svg version="1.1" xmlns="http://www.w3.org/2000/svg" viewBox="0 0 512 512" xmlns:xlink="http://www.w3.org/1999/xlink" enable-background="new 0 0 512 512">
  <path d="M510.617,233.5l-64-144C444.055,83.727,438.32,80,432,80h-31.656c-0.044-0.001-0.084,0.001-0.128,0h-99.164  C298.35,72.423,293.86,65.77,288,60.484V32c0-17.672-14.328-32-32-32s-32,14.328-32,32v28.484  C218.14,65.77,213.65,72.423,210.948,80H111.81c-0.067,0.001-0.129-0.002-0.196,0H80c-6.32,0-12.055,3.727-14.617,9.5l-64,144  C0.44,235.619-0.002,237.822,0,240v16c0,4.89,1.12,9.796,3.375,14.313l16,32C24.797,313.148,35.883,320,48,320h96  c12.117,0,23.203-6.852,28.625-17.688l16-32C190.88,265.796,192,260.89,192,256v-16c0.002-2.178-0.44-4.381-1.383-6.5l-54-121.5  h74.332c2.702,7.577,7.191,14.231,13.051,19.516V418.75l-38.625,38.625c-9.156,9.148-11.891,22.914-6.938,34.867  C183.391,504.203,195.055,512,208,512h96c12.945,0,24.609-7.797,29.563-19.758c4.953-11.953,2.219-25.719-6.938-34.867L288,418.75  V131.516c5.859-5.284,10.35-11.938,13.052-19.516h74.331l-54,121.5c-0.942,2.119-1.385,4.322-1.383,6.5v16  c0,4.89,1.12,9.796,3.375,14.313l16,32C344.797,313.148,355.883,320,368,320h96c12.117,0,23.203-6.852,28.625-17.688l16-32  C510.88,265.796,512,260.89,512,256v-16C512.002,237.822,511.56,235.619,510.617,233.5z M151.383,224H40.618l49.78-112h11.207  L151.383,224z M256,112c-8.82,0-16-7.18-16-16s7.18-16,16-16c8.82,0,16,7.18,16,16S264.82,112,256,112z M360.617,224l49.777-112  h11.207l49.78,112H360.617z"/>
</svg>
