<svg version="1.1" id="Layer_1" xmlns="http://www.w3.org/2000/svg" xmlns:xlink="http://www.w3.org/1999/xlink" x="0px" y="0px" viewBox="0 0 502.4 502.4" style="enable-background:new 0 0 502.4 502.4;" xml:space="preserve"><g><g><path d="M472.534,426.667L308.267,98.133c5.333-9.6,8.533-20.267,8.533-33.067C316.8,28.8,288,0,251.733,0s-65.067,28.8-65.067,65.067c0,11.733,3.2,23.467,8.533,33.067L32,422.4l-2.133,3.2c-2.133,3.2-2.133,6.4-2.133,10.667v1.067c0,60.8,170.667,65.067,222.933,65.067S473.6,498.133,473.6,437.333c1.067,1.067,1.067,0,1.067,0C474.667,434.133,474.667,430.933,472.534,426.667z M251.734,41.6c12.8,0,23.467,10.667,23.467,23.467s-10.667,23.467-23.467,23.467c-12.8,0-23.467-10.667-23.467-23.467S240,41.6,251.734,41.6z M228.267,125.867c7.467,3.2,14.933,4.267,23.467,4.267c8.533,0,16-2.133,23.467-4.267l131.2,262.4c-53.333-13.867-124.8-14.933-155.733-14.933c-29.867,0-100.267,1.067-153.6,14.933L228.267,125.867z M251.734,461.867c-92.8,0-152.533-13.867-174.933-23.467c22.4-9.6,82.133-23.467,174.933-23.467S404.267,428.8,426.667,438.4C404.267,449.067,344.534,461.867,251.734,461.867z"/></g></g></svg>