<?xml version="1.0" standalone="no"?>
<!DOCTYPE svg PUBLIC "-//W3C//DTD SVG 20010904//EN"
 "http://www.w3.org/TR/2001/REC-SVG-20010904/DTD/svg10.dtd">
<svg version="1.0" xmlns="http://www.w3.org/2000/svg"
 width="512.000000pt" height="512.000000pt" viewBox="0 0 512.000000 512.000000"
 preserveAspectRatio="xMidYMid meet">

<g transform="translate(0.000000,512.000000) scale(0.100000,-0.100000)"
fill="#EF5455" stroke="none">
<path d="M430 4070 c-115 -14 -199 -57 -285 -145 -149 -154 -184 -366 -91
-562 35 -74 55 -94 834 -866 1449 -1438 1377 -1368 1460 -1406 143 -65 280
-65 424 0 72 32 89 48 1161 1118 977 976 1091 1093 1123 1153 131 251 41 550
-201 665 -143 68 -297 68 -435 1 -67 -33 -130 -94 -1537 -1492 l-323 -321
-887 887 c-699 697 -899 891 -938 911 -106 52 -202 70 -305 57z m130 -350 c2
0 437 -432 965 -959 1043 -1043 977 -983 1073 -967 33 6 136 106 997 971 794
797 966 965 993 970 105 21 207 -71 188 -168 -6 -26 -224 -251 -1075 -1107
l-1069 -1075 -71 0 -71 0 -1065 1065 c-880 880 -1067 1072 -1077 1104 -11 34
-9 43 12 83 37 71 105 108 165 91 16 -4 32 -8 35 -8z"/>
</g>
</svg>
