<?xml version="1.0" standalone="no"?>
<!DOCTYPE svg PUBLIC "-//W3C//DTD SVG 20010904//EN"
 "http://www.w3.org/TR/2001/REC-SVG-20010904/DTD/svg10.dtd">
<svg version="1.0" xmlns="http://www.w3.org/2000/svg"
 width="512.000000pt" height="512.000000pt" viewBox="0 0 512.000000 512.000000"
 preserveAspectRatio="xMidYMid meet">

<g transform="translate(0.000000,512.000000) scale(0.100000,-0.100000)"
fill="#EF5455" stroke="none">
<path d="M25 5095 l-25 -24 0 -226 0 -226 25 -24 c21 -22 33 -25 100 -25 l75
0 0 -900 0 -900 -42 0 c-82 -1 -98 -35 -98 -210 0 -175 16 -209 98 -210 l42 0
0 -900 0 -900 -75 0 c-67 0 -79 -3 -100 -25 l-25 -24 0 -226 0 -226 25 -24 24
-25 226 0 226 0 24 25 c22 21 25 33 25 100 l0 75 900 0 900 0 0 -42 c1 -83 33
-98 210 -98 177 0 209 15 210 98 l0 42 550 0 551 0 24 25 c32 31 32 69 0 100
l-24 25 -551 0 -550 0 0 43 c0 30 -6 50 -20 65 -20 21 -29 22 -190 22 -161 0
-170 -1 -190 -22 -14 -15 -20 -35 -20 -65 l0 -43 -900 0 -900 0 0 75 c0 67 -3
79 -25 100 -21 22 -33 25 -100 25 l-75 0 0 900 0 900 43 0 c81 1 97 35 97 210
0 175 -16 209 -97 210 l-43 0 0 900 0 900 75 0 c67 0 79 3 100 25 22 21 25 33
25 100 l0 75 220 0 221 0 24 25 c32 31 32 69 0 100 l-24 25 -221 0 -220 0 0
75 c0 67 -3 79 -25 100 l-24 25 -226 0 -226 0 -24 -25z m375 -250 l0 -125
-125 0 -125 0 0 125 0 125 125 0 125 0 0 -125z m-70 -2285 l0 -60 -55 0 -55 0
0 60 0 60 55 0 55 0 0 -60z m70 -2285 l0 -125 -125 0 -125 0 0 125 0 125 125
0 125 0 0 -125z m2220 -5 l0 -60 -60 0 -60 0 0 60 0 60 60 0 60 0 0 -60z"/>
<path d="M4595 5095 c-22 -21 -25 -33 -25 -100 l0 -75 -900 0 -900 0 0 43 c0
30 -6 50 -20 65 -20 21 -29 22 -190 22 -161 0 -170 -1 -190 -22 -14 -15 -20
-35 -20 -65 l0 -43 -525 0 -526 0 -24 -25 c-32 -31 -32 -69 0 -100 l24 -25
526 0 525 0 0 -42 c1 -83 33 -98 210 -98 177 0 209 15 210 98 l0 42 900 0 900
0 0 -75 c0 -67 3 -79 25 -100 21 -22 33 -25 100 -25 l75 0 0 -900 0 -900 -42
0 c-82 -1 -98 -35 -98 -210 0 -175 16 -209 98 -210 l42 0 0 -900 0 -900 -75 0
c-67 0 -79 -3 -100 -25 -22 -21 -25 -33 -25 -100 l0 -75 -200 0 c-200 0 -201
0 -225 -25 -14 -13 -25 -36 -25 -50 0 -14 11 -37 25 -50 24 -25 25 -25 225
-25 l200 0 0 -75 c0 -67 3 -79 25 -100 l24 -25 226 0 226 0 24 25 25 24 0 226
0 226 -25 24 c-21 22 -33 25 -100 25 l-75 0 0 900 0 900 43 0 c81 1 97 35 97
210 0 175 -16 209 -97 210 l-43 0 0 900 0 900 75 0 c67 0 79 3 100 25 l25 24
0 226 0 226 -25 24 -24 25 -226 0 -226 0 -24 -25z m375 -250 l0 -125 -125 0
-125 0 0 125 0 125 125 0 125 0 0 -125z m-2350 -5 l0 -60 -60 0 -60 0 0 60 0
60 60 0 60 0 0 -60z m2280 -2280 l0 -60 -55 0 -55 0 0 60 0 60 55 0 55 0 0
-60z m70 -2285 l0 -125 -125 0 -125 0 0 125 0 125 125 0 125 0 0 -125z"/>
<path d="M1998 4290 c-20 -11 -48 -35 -62 -53 -26 -34 -1166 -3268 -1166
-3308 0 -11 7 -36 16 -55 31 -66 21 -65 557 -62 l484 3 37 29 c21 15 46 41 55
57 10 16 67 161 127 324 l109 295 406 0 405 0 104 -283 c57 -155 111 -298 121
-317 21 -43 65 -85 102 -99 19 -7 190 -11 498 -11 392 0 475 2 498 15 30 15
61 69 61 104 0 40 -1140 3274 -1166 3309 -14 17 -43 41 -64 52 -38 19 -59 20
-562 20 -499 -1 -525 -2 -560 -20z m580 -142 c5 -7 74 -197 153 -423 79 -225
152 -418 161 -427 38 -38 105 -17 122 37 4 13 -45 166 -134 419 -77 220 -140
401 -140 403 0 2 72 3 161 3 l160 0 14 -33 c7 -18 256 -725 553 -1572 297
-847 545 -1552 551 -1568 l11 -27 -166 2 -167 3 -366 1047 c-202 575 -373
1053 -380 1062 -8 10 -29 16 -51 16 -30 0 -43 -6 -59 -26 -12 -15 -21 -32 -21
-37 0 -8 685 -1971 716 -2052 5 -13 -19 -15 -174 -15 -132 0 -182 3 -189 13
-6 6 -63 156 -128 332 -64 176 -126 330 -138 343 l-20 22 -728 0 c-678 0 -728
-1 -747 -17 -20 -18 -92 -192 -92 -224 0 -32 40 -69 74 -69 41 0 64 25 92 98
l21 57 161 3 c89 1 162 -1 162 -5 0 -14 -193 -528 -203 -540 -7 -10 -53 -13
-168 -13 l-159 0 26 70 c23 60 25 74 14 99 -16 40 -59 57 -97 39 -22 -10 -36
-32 -63 -100 -19 -48 -40 -92 -46 -98 -7 -7 -74 -9 -185 -8 l-175 3 552 1574
c304 866 557 1585 563 1598 l11 23 254 0 c191 0 256 -3 264 -12z"/>
<path d="M2271 3693 c-24 -21 -561 -1552 -561 -1601 0 -21 8 -37 26 -51 26
-21 35 -21 586 -21 l559 0 24 25 c14 13 25 34 25 46 0 13 -122 372 -271 798
-207 592 -277 781 -296 799 -29 26 -63 28 -92 5z m133 -531 l77 -223 -133
-382 -133 -382 -162 -3 c-90 -1 -163 0 -163 4 0 21 425 1223 430 1217 4 -5 41
-108 84 -231z m248 -709 c48 -137 90 -256 93 -265 7 -17 -6 -18 -180 -18 -175
0 -186 1 -183 18 5 32 173 512 178 512 3 0 45 -111 92 -247z"/>
</g>
</svg>
