<?xml version="1.0" encoding="utf-8"?>
<!-- Generator: Adobe Illustrator 26.2.1, SVG Export Plug-In . SVG Version: 6.00 Build 0)  -->
<svg version="1.1" id="Layer_1" xmlns="http://www.w3.org/2000/svg" xmlns:xlink="http://www.w3.org/1999/xlink" x="0px" y="0px"
	 viewBox="0 0 280 280" style="enable-background:new 0 0 280 280;" xml:space="preserve">
<style type="text/css">
	.st0{fill:#EFC75E;}
	.st1{fill:#DFA14F;}
</style>
<path class="st0" d="M267.3,140c0,70.3-57,127.2-127.3,127.2c-1.3,0-2.6,0-3.9-0.1c-0.5,0-1.1,0-1.6-0.1c-0.6,0-1.2-0.1-1.8-0.1
	c-0.5,0-1-0.1-1.4-0.1c-0.7,0-1.4-0.1-2.2-0.2c-0.6,0-1.2-0.1-1.8-0.2c-0.6-0.1-1.2-0.1-1.8-0.2c-0.6-0.1-1.1-0.1-1.7-0.2
	c-0.6-0.1-1.2-0.2-1.8-0.3c-1-0.1-2-0.3-2.9-0.4c-1.4-0.2-2.8-0.5-4.2-0.8c-1.1-0.2-2.2-0.5-3.3-0.7c-0.6-0.1-1.2-0.3-1.8-0.4
	c-1.1-0.3-2.2-0.6-3.3-0.9c-0.6-0.2-1.1-0.3-1.7-0.5c-1.1-0.3-2.2-0.7-3.3-1c-1.7-0.5-3.4-1.1-5.1-1.7c-1.4-0.5-2.8-1.1-4.1-1.6
	c-0.7-0.3-1.4-0.6-2.1-0.9c-0.6-0.3-1.3-0.5-1.9-0.8c-0.8-0.4-1.7-0.8-2.5-1.2c-0.5-0.2-0.9-0.4-1.4-0.7c-0.9-0.4-1.8-0.9-2.7-1.4
	c-0.3-0.2-0.7-0.3-1-0.5c-1-0.5-2-1.1-3-1.7c-0.1-0.1-0.3-0.2-0.4-0.2C38.6,228.7,12.8,187.4,12.8,140c0-1.6,0-3.1,0.1-4.6
	c12.9,7.6,27.9,11.9,44,11.9c48.2,0,87.3-39.1,87.3-87.3c0-17.3-5-33.4-13.7-46.9c3.2-0.2,6.4-0.4,9.6-0.4
	c47.4,0,88.7,25.9,110.6,64.3c0.1,0.1,0.1,0.2,0.2,0.3c0.6,1,1.1,2.1,1.7,3.1c0.2,0.3,0.3,0.6,0.5,0.9c0.5,0.9,1,1.9,1.4,2.8
	c0.2,0.4,0.4,0.9,0.6,1.3c0.4,0.8,0.8,1.7,1.2,2.6c0.3,0.6,0.5,1.2,0.8,1.9c0.3,0.7,0.6,1.4,0.9,2.2c0.6,1.4,1.1,2.7,1.6,4.1
	c0,0.1,0,0.1,0.1,0.2c0.2,0.5,0.4,1.1,0.6,1.6c0.2,0.5,0.4,1.1,0.6,1.6c0.6,1.7,1.1,3.3,1.6,5c0.2,0.6,0.3,1.1,0.5,1.7
	c0,0.1,0.1,0.2,0.1,0.3c0.2,0.9,0.5,1.8,0.7,2.8c0.2,0.7,0.3,1.4,0.5,2.1c0.3,1.1,0.5,2.2,0.7,3.4c0.4,1.8,0.7,3.5,0.9,5.3
	c0.1,0.6,0.2,1.2,0.3,1.8c0.1,0.6,0.2,1.2,0.3,1.8c0.1,0.6,0.1,1.1,0.2,1.7c0.1,0.6,0.1,1.2,0.2,1.8c0.1,0.6,0.1,1.2,0.2,1.8
	c0.1,0.7,0.1,1.4,0.2,2.2c0,0.5,0.1,1,0.1,1.4c0,0.6,0.1,1.2,0.1,1.8c0,0.5,0,1.1,0.1,1.6C267.3,137.4,267.3,138.7,267.3,140z"/>
<circle class="st1" cx="187.7" cy="104.4" r="23.9"/>
<path class="st1" d="M78.5,188.4c-4.5,17,5.5,34.5,22.5,39.1c17,4.6,34.4-5.5,39-22.6c4.5-17-5.5-34.6-22.5-39.1
	C100.5,161.3,83,171.4,78.5,188.4z"/>
<circle class="st1" cx="203.7" cy="187.7" r="15.9"/>
</svg>
