<?xml version="1.0" encoding="utf-8"?>
<!-- Generator: Adobe Illustrator 26.0.2, SVG Export Plug-In . SVG Version: 6.00 Build 0)  -->
<svg version="1.1" id="Layer_1" xmlns="http://www.w3.org/2000/svg" xmlns:xlink="http://www.w3.org/1999/xlink" x="0px" y="0px"
	 viewBox="0 0 32 32" style="enable-background:new 0 0 32 32;" xml:space="preserve">
<style type="text/css">
	.st0{fill:#FFFFFF;}
</style>
<path class="st0" d="M19.8,16L31.2,4.5C31.7,4.1,32,3.4,32,2.7C32,1.2,30.8,0,29.3,0c-0.7,0-1.4,0.3-1.9,0.8L16,12.2L4.5,0.8
	C4.1,0.3,3.4,0.1,2.7,0.1c-1.5,0-2.7,1.2-2.7,2.7c0,0.7,0.3,1.3,0.7,1.8l0,0L12.2,16L0.8,27.4C0.3,27.9,0,28.6,0,29.3
	C0,30.8,1.2,32,2.7,32c0.7,0,1.4-0.3,1.9-0.7l0,0L16,19.8l11.5,11.5c0.5,0.5,1.2,0.8,1.9,0.8c0.7,0,1.4-0.3,1.9-0.8
	c0.5-0.5,0.8-1.2,0.8-1.9c0-0.7-0.3-1.4-0.8-1.9C31.2,27.4,19.8,16,19.8,16z"/>
</svg>
