<?xml version="1.0" standalone="no"?>
<!DOCTYPE svg PUBLIC "-//W3C//DTD SVG 20010904//EN"
 "http://www.w3.org/TR/2001/REC-SVG-20010904/DTD/svg10.dtd">
<svg version="1.0" xmlns="http://www.w3.org/2000/svg"
 width="512.000000pt" height="512.000000pt" viewBox="0 0 512.000000 512.000000"
 preserveAspectRatio="xMidYMid meet">

<g transform="translate(0.000000,512.000000) scale(0.100000,-0.100000)"
fill="#ffffff" stroke="none">
<path d="M760 5104 c-136 -29 -296 -137 -356 -240 -23 -39 -25 -48 -14 -73 11
-28 46 -51 76 -51 9 0 48 33 87 74 98 100 216 156 326 156 45 0 75 31 75 75 0
72 -55 89 -194 59z"/>
<path d="M894 4857 c-142 -37 -284 -134 -378 -260 -100 -134 -119 -198 -70
-236 49 -38 88 -21 132 57 70 126 182 231 292 273 65 25 204 36 268 21 58 -14
96 0 113 40 16 38 -2 76 -46 97 -41 20 -245 24 -311 8z"/>
<path d="M1880 4614 c-447 -40 -905 -147 -939 -220 -16 -35 -14 -47 10 -78 27
-35 48 -33 193 13 143 46 329 85 535 112 189 26 560 36 738 20 494 -44 925
-185 1337 -439 223 -138 391 -327 453 -512 12 -35 21 -66 19 -67 -3 -3 -73 24
-278 110 -363 152 -997 345 -1291 392 -290 46 -716 59 -1002 30 -245 -25 -627
-89 -988 -166 -104 -23 -192 -38 -195 -34 -10 10 54 127 109 199 27 35 74 86
106 113 93 79 103 90 103 121 0 36 -37 72 -75 72 -34 0 -112 -58 -192 -144
-136 -145 -224 -328 -258 -537 -19 -120 -19 -190 1 -287 29 -143 98 -237 213
-291 49 -23 69 -26 161 -26 l105 0 -132 -348 c-73 -192 -140 -372 -150 -400
-16 -47 -18 -126 -21 -869 l-3 -818 -23 0 c-50 0 -123 -31 -159 -66 -59 -59
-69 -100 -65 -257 3 -147 9 -165 72 -211 l27 -21 1950 -3 c1925 -2 1950 -2
1988 18 22 10 50 36 62 57 22 35 24 48 24 178 0 124 -2 144 -22 180 -38 72
-95 109 -181 121 l-52 7 0 798 c0 552 -3 814 -11 850 -6 29 -47 147 -91 262
-43 115 -77 211 -75 213 2 3 28 -1 57 -7 197 -42 357 79 431 326 26 87 37 293
20 387 -54 310 -254 574 -591 778 -364 220 -791 369 -1221 426 -118 15 -589
27 -699 18z m544 -789 c67 -8 124 -15 129 -15 10 0 -2 -50 -20 -78 l-14 -22
-272 2 -272 3 -21 60 c-12 33 -19 64 -16 69 7 12 332 -1 486 -19z m-620 -72
c33 -102 62 -145 116 -173 36 -19 59 -20 330 -20 222 0 298 3 323 14 52 21 94
73 118 143 11 34 26 63 33 63 24 0 293 -69 388 -100 l96 -30 -38 -115 c-56
-167 -74 -255 -67 -335 9 -110 61 -191 162 -252 41 -25 267 -128 367 -168 54
-21 59 -25 77 -74 10 -28 55 -147 100 -263 44 -117 85 -232 91 -255 6 -26 10
-352 10 -835 l0 -793 -1660 0 -1660 0 0 763 c0 427 5 791 10 827 11 77 309
870 331 881 8 4 92 23 188 43 251 52 322 91 378 204 26 54 28 65 28 187 0 72
-4 178 -8 236 l-9 107 53 7 c29 4 84 11 123 15 39 4 76 8 81 9 6 0 24 -38 39
-86z m-440 -35 c3 -35 9 -117 12 -183 10 -188 -15 -242 -128 -278 -81 -25
-502 -108 -585 -114 -64 -5 -78 -3 -126 21 -58 28 -95 72 -118 141 -17 48 -17
271 -1 287 22 22 808 183 913 187 25 1 26 -2 33 -61z m2326 -225 c187 -68 343
-130 458 -184 l102 -48 0 -59 c0 -123 -58 -282 -124 -340 -66 -58 -138 -54
-339 20 -155 57 -431 181 -474 214 -83 63 -82 148 3 405 l35 107 107 -35 c59
-19 163 -55 232 -80z m457 -3106 c15 -15 18 -35 18 -125 l0 -107 -1912 -3
-1913 -2 0 109 c0 107 1 110 26 130 l27 21 1868 -2 c1777 -3 1869 -4 1886 -21z"/>
<path d="M2067 2834 c-413 -74 -745 -383 -854 -792 -23 -85 -26 -117 -26 -262
-1 -148 2 -175 26 -265 47 -174 139 -342 258 -469 155 -166 362 -280 585 -322
124 -23 346 -16 464 15 167 44 351 147 472 264 215 210 329 474 329 766 0 141
-13 228 -51 343 -170 507 -685 816 -1203 722z m348 -149 c366 -64 664 -353
740 -720 20 -98 21 -277 1 -371 -72 -342 -322 -607 -663 -706 -68 -20 -100
-23 -248 -23 -159 1 -176 3 -255 29 -322 106 -546 339 -631 657 -30 109 -32
326 -6 433 68 271 247 496 492 619 176 88 372 116 570 82z"/>
<path d="M2206 2569 c-24 -18 -26 -27 -26 -89 0 -76 15 -105 62 -116 22 -5 34
0 59 25 30 30 31 35 27 98 -3 54 -8 69 -27 84 -30 25 -62 24 -95 -2z"/>
<path d="M1835 2465 c-14 -13 -25 -33 -25 -45 0 -26 34 -94 60 -120 30 -30 83
-26 109 6 28 35 26 49 -9 111 -45 78 -90 94 -135 48z"/>
<path d="M2579 2477 c-26 -20 -69 -102 -69 -130 0 -61 84 -91 128 -44 37 40
61 106 50 139 -16 45 -72 63 -109 35z"/>
<path d="M2110 2241 c-307 -98 -436 -457 -262 -727 100 -155 293 -243 471
-215 84 13 185 54 207 85 20 29 17 73 -6 96 -24 24 -71 26 -103 5 -41 -26
-145 -47 -200 -40 -114 15 -218 90 -266 190 -36 74 -40 182 -11 259 28 73 95
148 165 184 44 23 62 27 145 27 79 0 103 -4 141 -23 73 -36 125 -87 160 -158
30 -60 37 -98 39 -221 0 -21 43 -53 70 -53 16 0 37 11 51 26 22 23 24 33 23
112 -4 219 -147 402 -359 458 -70 19 -198 17 -265 -5z"/>
<path d="M1565 2195 c-49 -48 -28 -95 60 -140 53 -27 59 -28 84 -14 69 39 59
106 -24 151 -62 34 -89 35 -120 3z"/>
<path d="M2830 2199 c-79 -47 -98 -88 -65 -136 23 -33 61 -37 109 -13 63 33
86 59 86 97 0 67 -63 92 -130 52z"/>
<path d="M1461 1824 c-24 -30 -26 -43 -10 -77 15 -33 49 -47 110 -47 42 0 55
5 80 29 34 35 36 59 8 95 -19 24 -26 26 -94 26 -68 0 -75 -2 -94 -26z"/>
<path d="M2860 1830 c-25 -25 -26 -71 -1 -101 15 -19 30 -24 82 -27 81 -5 119
19 119 74 0 56 -27 74 -110 74 -57 0 -74 -4 -90 -20z"/>
<path d="M1611 1495 c-24 -14 -50 -33 -57 -43 -35 -45 1 -112 59 -112 42 0
124 51 137 85 18 48 -18 95 -72 95 -13 0 -43 -12 -67 -25z"/>
<path d="M2772 1497 c-41 -44 -26 -91 42 -131 84 -49 150 -26 144 50 -3 34 -9
43 -53 71 -60 40 -103 43 -133 10z"/>
<path d="M1873 1258 c-34 -39 -63 -94 -63 -122 0 -60 85 -90 127 -43 37 39 65
103 57 131 -13 55 -84 74 -121 34z"/>
<path d="M2532 1257 c-28 -30 -28 -66 0 -114 35 -62 48 -73 88 -73 39 0 62 18
74 56 7 24 -34 109 -66 137 -28 24 -70 21 -96 -6z"/>
<path d="M2200 1170 c-16 -16 -20 -33 -20 -90 0 -83 18 -110 74 -110 51 0 76
36 76 110 0 74 -25 110 -76 110 -21 0 -42 -8 -54 -20z"/>
<path d="M4631 1064 c-33 -42 -27 -67 33 -129 71 -72 106 -145 113 -238 5 -56
11 -76 29 -94 30 -30 69 -29 99 2 20 19 25 34 25 77 0 121 -59 257 -152 351
-47 48 -62 57 -91 57 -26 0 -41 -7 -56 -26z"/>
<path d="M4255 1068 c-30 -16 -45 -39 -45 -67 1 -34 13 -48 82 -94 79 -53 134
-116 171 -195 27 -57 32 -79 32 -142 0 -41 -4 -100 -9 -130 -7 -48 -6 -58 11
-79 28 -34 79 -33 108 2 25 28 45 121 45 203 0 71 -26 168 -63 238 -40 76
-148 191 -219 233 -66 39 -88 45 -113 31z"/>
</g>
</svg>
