<svg id="Layer_1" data-name="Layer 1" xmlns="http://www.w3.org/2000/svg" viewBox="0 0 564.89 255"><defs><style>.cls-1{fill:#fff;}.cls-2{fill:#ffdb00;}</style></defs><path id="Vector" class="cls-1" d="M26.2,223.16c4.66-.6,6.55-5,6.55-9.18v-7.36c0-7.36-5.2-11.55-14-11.55H3.38v58.62H18.57c8.91,0,14.59-4.19,14.59-11.55v-9.66C33.09,228,31.33,224,26.2,223.16ZM13.1,203.38h5.47c2.77,0,4.52,1.42,4.52,4.52v6.76c0,3.1-1.75,4.52-4.52,4.52H13.1v-15.8Zm10.26,37.34c0,3.11-1.75,4.53-4.52,4.53H13V227.42h5.81c2.77,0,4.52,1.42,4.52,4.52v8.78Z"/><path id="Vector_2" data-name="Vector 2" class="cls-1" d="M118.11,194.33h-.68c-8.91,0-14.72,3.71-14.72,12.43v35.18c0,9.11,5.87,12.42,14.72,12.42h.68c8.84,0,14.72-3.37,14.72-12.42V223.5h-15.4v8.24h5.67v8.71c0,4.19-2.16,5.34-5.33,5.34s-5.34-1.15-5.34-5.34V208.31c0-4.19,2.16-5.33,5.34-5.33s5.33,1.14,5.33,5.33v6.89h9.73v-8.38C132.89,198,127,194.33,118.11,194.33Z"/><path id="Vector_3" data-name="Vector 3" class="cls-1" d="M179.08,240.45c0,4.19-1.82,5.34-5,5.34s-5-1.15-5-5.34V195.07h-9.72V242c0,9.11,5.67,12.42,14.58,12.42h.34c8.91,0,14.58-3.38,14.58-12.42V195.07h-9.72v45.38Z"/><path id="Vector_4" data-name="Vector 4" class="cls-1" d="M50,228.16H63.41v-8.51H50V203.58H66V195H40.31v58.68H66.24v-8.58H50Z"/><path id="Vector_5" data-name="Vector 5" class="cls-1" d="M217.57,229.11,206.23,195H197v58.68h9.05V217.83l8.78,27.28h5.47l8.78-27.28v35.86h9.39V195H229Z"/><path id="Vector_6" data-name="Vector 6" class="cls-1" d="M82.86,195H73.13v58.68H97.85v-8.78h-15Z"/><path id="Vector_7" data-name="Vector 7" class="cls-1" d="M150.79,195h-9.72v58.61h9.72Z"/><path id="Vector_8" data-name="Vector 8" class="cls-1" d="M141.81,129.77h-.14c-8.91,0-14.72,3.72-14.72,12.43v35.18c0,9.12,5.88,12.43,14.72,12.43h.14c8.91,0,14.72-3.38,14.72-12.43V165.23H146.8V175.9c0,4.11-2,5.33-5.13,5.33s-5.13-1.28-5.13-5.33V143.75c0-4.12,2-5.33,5.13-5.33s5.13,1.28,5.13,5.33v9.19h9.73V142.2C156.6,133.42,150.72,129.77,141.81,129.77Z"/><path id="Vector_9" data-name="Vector 9" class="cls-1" d="M185.16,154.9H174V130.45h-9.73v58.61H174V163.61h11.14v25.45h9.72V130.45h-9.72Z"/><path id="Vector_10" data-name="Vector 10" class="cls-1" d="M83.13,180.56H66.85V163.61H80.22V155.1H66.85V139h16v-8.51H57.13v58.61h26Z"/><path id="Vector_11" data-name="Vector 11" class="cls-1" d="M297,153.34V142.81c0-8.92-5.88-12.43-14.72-12.43h-15.2V189h9.73V165.63h4.86L289.08,189h9.86l-8.37-24.85C294.62,162.46,297,159,297,153.34ZM287.26,152c0,4.19-2.16,5.34-5.33,5.34H276.8V139h5.13c3.17,0,5.33,1.15,5.33,5.33Z"/><path id="Vector_12" data-name="Vector 12" class="cls-1" d="M112,189.06h9.86l-8.38-24.85c4.06-1.75,6.35-5.26,6.35-10.87V142.81c0-8.92-5.87-12.43-14.72-12.43H90V189h9.72V165.63h4.86ZM99.67,139h5.13c3.18,0,5.34,1.15,5.34,5.33v7.63c0,4.19-2.16,5.34-5.34,5.34H99.67Z"/><path id="Vector_13" data-name="Vector 13" class="cls-1" d="M244,163.61h13.37V155.1H244V139h16v-8.51H234.25v58.61h25.93v-8.5H244Z"/><path id="Vector_14" data-name="Vector 14" class="cls-1" d="M52.13,130.45H43.08l-4.86,41.87-7.56-41.87H22l-7.57,41.87L9.52,130.45H0l9.18,58.61h9.53l7.49-40.18,7.56,40.18h9.12Z"/><path id="Vector_15" data-name="Vector 15" class="cls-1" d="M219.4,189.06V139h9.79v-8.51H199.88V139h9.79v50.1Z"/><path id="Vector_16" data-name="Vector 16" class="cls-1" d="M28.77,74.4V65.89H3.38v58.62H13.1V99.46h13V90.88h-13V74.4Z"/><path id="Vector_17" data-name="Vector 17" class="cls-1" d="M80,125.18h.14C89,125.18,94.61,122,94.61,113v-8.44c0-6.28-3.38-8.91-9-12.09l-6.88-3.85C76,87,75,85.68,75,82.64v-4c0-3.71,2.09-5,4.93-5s4.92,1.35,4.92,5v8.24h9.53V77.31C94.34,68.6,88,65.22,80,65.22h-.13c-8,0-14.39,3.38-14.39,12.09V85c0,6.15,3.25,8.78,9,12.09l6.75,3.85c2.9,1.62,3.85,3.11,3.85,6.15v4.59c0,3.58-2.1,5.2-5,5.2s-5-1.62-5-5.2v-8.85H65.43V113C65.43,122.08,71,125.18,80,125.18Z"/><path id="Vector_18" data-name="Vector 18" class="cls-1" d="M107.71,124.51h9.72V74.4h9.79V65.89H97.91V74.4h9.8Z"/><path id="Vector_19" data-name="Vector 19" class="cls-1" d="M60,74.4V65.89H34.24v58.62h26v-8.58H44V99.05H57.4V90.47H44V74.4Z"/><path id="Vector_20" data-name="Vector 20" class="cls-1" d="M242.49,115.8h-15V65.89h-9.66v58.62h24.65Z"/><path id="Vector_21" data-name="Vector 21" class="cls-1" d="M180.37,65.89H171l-6.75,43.42-6.82-43.42h-9.86l11,58.62h10.74Z"/><path id="Vector_22" data-name="Vector 22" class="cls-1" d="M142.35,65.89h-9.73v58.62h9.73Z"/><path id="Vector_23" data-name="Vector 23" class="cls-1" d="M347.16,88.72V78.25c0-8.91-5.88-12.42-14.72-12.42h-15.2v58.61H327V101.08h4.86l7.43,23.36h9.86l-8.31-24.85C344.8,97.83,347.16,94.32,347.16,88.72Zm-9.73-1.35c0,4.18-2.16,5.33-5.33,5.33H327V74.33h5.13c3.17,0,5.33,1.15,5.33,5.34Z"/><path id="Vector_24" data-name="Vector 24" class="cls-1" d="M277.61,89.39V78.25c0-8.91-5.88-12.42-14.73-12.42H247.69v58.61h9.73V101.75h5.46C271.73,101.82,277.61,98.31,277.61,89.39Zm-9.73-1.48c0,4.18-2.16,5.33-5.33,5.33h-5.13V74.4h5.13c3.17,0,5.33,1.15,5.33,5.34Z"/><path id="Vector_25" data-name="Vector 25" class="cls-1" d="M289.08,65.89l-10.87,58.62h9.39l2.09-13.1h10.74l2.09,13.1h9.86L301.31,65.89Zm1.9,37.48,4.12-26.06,4.11,26.06Z"/><path id="Vector_26" data-name="Vector 26" class="cls-1" d="M203.05,124.51h9.86l-11-58.62H189.68l-10.87,58.62h9.39l2.09-13.1H201Zm-11.54-21.14,4.12-26.06,4.12,26.06Z"/><path id="Vector_27" data-name="Vector 27" class="cls-1" d="M374.78,87.91l11.27-22H375.79L364.72,92.23V65.89h-9.66v58.62h9.66v-17l4.39-8.51,8,25.46H387Z"/><path class="cls-2" d="M22,29.18c5,1,5.59,5.18,5.59,8.3V47.6c0,8.06-4.28,12.17-12.67,12.17H12.66C4.28,59.77,0,55.66,0,47.6V39.87H9.21v6.74c0,4,2.06,5.26,4.28,5.26h.57c2.22,0,4.28-1.23,4.28-5.26v-9c0-3-1.73-4.44-3.95-4.44h-7V25.48h6.17c3,0,4.77-1.4,4.77-5.27V14.05c0-4-2.06-5.27-4.28-5.27h-.74c-2.22,0-4.27,1.24-4.27,5.27v5.42H0V13.06C0,4.18,5.1.89,13.49.89h.57c8.39,0,13.49,3.29,13.49,12.17v7.07C27.55,23.75,26.73,28.44,22,29.18Z"/><path class="cls-2" d="M62.58,13.06V47.6c0,8.71-5.19,12.17-13.82,12.17H48.1c-8.63,0-13.81-3.46-13.81-12.17V13.06C34.29,4.34,39.47.89,48.1.89h.66C57.39.89,62.58,4.34,62.58,13.06ZM48.43,9.28c-3,0-4.93,1.15-4.93,5.26V46.12c0,4.11,1.89,5.26,4.93,5.26s4.94-1.15,4.94-5.26V14.54C53.37,10.43,51.47,9.28,48.43,9.28Z"/><path class="cls-2" d="M88.39,45.29V1.55h9.54V46.94c0,8.88-5.92,12.17-14.64,12.17H79.68V50.56h3.45C86.25,50.56,88.39,49.41,88.39,45.29Z"/><path class="cls-2" d="M134.77,47.6c0,8.88-5.59,12.17-14.31,12.17h-.33c-8.72,0-14.31-3.21-14.31-12.17V1.55h9.54V46.12c0,4.11,1.81,5.26,4.94,5.26s4.93-1.15,4.93-5.26V1.55h9.54Z"/><path class="cls-2" d="M142.82,59.11V1.55h9.54l12.09,35.6V1.55h8.72V59.11h-9L151.54,21.69V59.11Z"/><path class="cls-2" d="M181.39,59.11V1.55h25.24V9.93h-15.7V25.72h13.15v8.39H190.93V50.72h15.95v8.39Z"/><path class="cls-2" d="M243.72,33.54H224.31V25.81h19.41Z"/><path class="cls-2" d="M282.94,29.18c5,1,5.59,5.18,5.59,8.3V47.6c0,8.06-4.28,12.17-12.67,12.17h-2.22c-8.38,0-12.66-4.11-12.66-12.17V39.87h9.21v6.74c0,4,2.06,5.26,4.28,5.26H275c2.22,0,4.28-1.23,4.28-5.26v-9c0-3-1.73-4.44-3.95-4.44h-7V25.48h6.17c3,0,4.77-1.4,4.77-5.27V14.05c0-4-2.06-5.27-4.28-5.27h-.74c-2.22,0-4.27,1.24-4.27,5.27v5.42h-9V13.06C261,4.18,266.08.89,274.47.89H275c8.39,0,13.49,3.29,13.49,12.17v7.07C288.53,23.75,287.71,28.44,282.94,29.18Z"/><path class="cls-2" d="M313.52,45.29V1.55h9.54V46.94c0,8.88-5.92,12.17-14.64,12.17h-3.61V50.56h3.45C311.38,50.56,313.52,49.41,313.52,45.29Z"/><path class="cls-2" d="M359.9,47.6c0,8.88-5.59,12.17-14.31,12.17h-.33c-8.72,0-14.31-3.21-14.31-12.17V1.55h9.54V46.12c0,4.11,1.81,5.26,4.94,5.26s4.93-1.15,4.93-5.26V1.55h9.54Z"/><path class="cls-2" d="M392.21,59.11H368V1.55h9.54v49h14.72Z"/><path class="cls-2" d="M409.23,59.11h-9.54V38.63L388.1,1.55h10l6.42,26.72L411,1.55h9.87l-11.6,37.08Z"/><path class="cls-2" d="M436.78,12.73c0-8.55,4.77-11.84,13.48-11.84h.17c8.71,0,13.48,3.29,13.48,11.84v6.74c0,7.24-4.77,10.36-10.19,15.63-4.77,4.6-7.9,7.73-7.9,10.85v5.27h18.09v7.89h-27.3V45.79c0-7.32,6-12,11.76-17.52,4.36-4.19,6.33-5.92,6.33-9V13.72c0-4-1.89-4.94-4.52-4.94s-4.36,1-4.36,4.94V22.1h-9Z"/><path class="cls-2" d="M498.45,13.06V47.6c0,8.71-5.18,12.17-13.82,12.17H484c-8.63,0-13.81-3.46-13.81-12.17V13.06C470.16,4.34,475.34.89,484,.89h.66C493.27.89,498.45,4.34,498.45,13.06ZM484.3,9.28c-3,0-4.93,1.15-4.93,5.26V46.12c0,4.11,1.89,5.26,4.93,5.26s4.94-1.15,4.94-5.26V14.54C489.24,10.43,487.35,9.28,484.3,9.28Z"/><path class="cls-2" d="M505.19,12.73C505.19,4.18,510,.89,518.67.89h.17c8.71,0,13.48,3.29,13.48,11.84v6.74c0,7.24-4.77,10.36-10.19,15.63-4.77,4.6-7.9,7.73-7.9,10.85v5.27h18.09v7.89H505V45.79c0-7.32,6-12,11.76-17.52,4.36-4.19,6.33-5.92,6.33-9V13.72c0-4-1.89-4.94-4.52-4.94s-4.36,1-4.36,4.94V22.1h-9Z"/><path class="cls-2" d="M537.75,12.73c0-8.55,4.77-11.84,13.48-11.84h.17c8.72,0,13.49,3.29,13.49,11.84v6.74c0,7.24-4.77,10.36-10.2,15.63-4.77,4.6-7.9,7.73-7.9,10.85v5.27h18.1v7.89H537.58V45.79c0-7.32,6-12,11.76-17.52,4.36-4.19,6.34-5.92,6.34-9V13.72c0-4-1.9-4.94-4.53-4.94s-4.36,1-4.36,4.94V22.1h-9Z"/></svg>