<?xml version="1.0" standalone="no"?>
<!DOCTYPE svg PUBLIC "-//W3C//DTD SVG 20010904//EN"
 "http://www.w3.org/TR/2001/REC-SVG-20010904/DTD/svg10.dtd">
<svg version="1.0" xmlns="http://www.w3.org/2000/svg"
 width="639.000000pt" height="639.000000pt" viewBox="0 0 639.000000 639.000000"
 preserveAspectRatio="xMidYMid meet">
<metadata>
Created by potrace 1.14, written by Peter Selinger 2001-2017
</metadata>
<g transform="translate(0.000000,639.000000) scale(0.100000,-0.100000)"
fill="#000000" stroke="none">
<path d="M3118 6385 c-2 -1 -39 -5 -83 -9 -87 -7 -290 -38 -337 -52 -9 -3 -25
-7 -37 -9 -75 -14 -267 -76 -376 -122 -71 -29 -265 -125 -315 -155 -67 -41
-215 -142 -260 -177 -24 -20 -56 -45 -69 -56 -227 -183 -469 -480 -615 -756
-137 -260 -239 -575 -271 -839 -3 -25 -10 -76 -15 -115 -9 -73 -6 -512 4 -555
3 -14 8 -47 12 -75 18 -161 101 -477 159 -610 8 -16 28 -64 45 -105 75 -180
234 -441 376 -620 83 -104 336 -357 426 -425 l66 -50 -343 -345 c-362 -365
-363 -365 -343 -439 19 -69 284 -297 523 -448 267 -169 647 -319 925 -367 14
-2 52 -9 85 -14 195 -34 412 -44 633 -28 56 4 110 9 120 11 9 1 40 6 67 9 242
31 617 152 800 259 28 16 50 28 50 27 0 -5 72 38 168 101 490 316 865 822
1036 1394 27 90 68 275 76 344 4 30 8 61 10 70 22 117 23 514 1 651 -2 14 -8
48 -12 75 -4 28 -8 55 -10 60 -1 6 -5 28 -8 50 -19 120 -96 373 -161 530 -175
423 -492 838 -859 1123 l-30 23 342 342 c188 189 343 350 343 358 1 8 3 25 5
39 6 52 -21 89 -170 225 -6 6 -45 38 -86 70 -41 33 -77 63 -80 66 -6 7 -188
130 -215 145 -11 6 -48 28 -83 48 -162 96 -517 240 -671 271 -9 2 -47 10 -86
19 -87 19 -111 24 -205 37 -41 5 -93 12 -115 15 -41 6 -412 14 -417 9z m1495
-1858 l48 -41 -1368 -1368 c-752 -752 -1371 -1368 -1374 -1368 -8 0 -161 124
-178 144 -13 16 117 149 1354 1386 l1369 1369 50 -41 c28 -22 73 -58 99 -81z"/>
</g>
</svg>
