<?xml version="1.0" standalone="no"?>
<!DOCTYPE svg PUBLIC "-//W3C//DTD SVG 20010904//EN"
 "http://www.w3.org/TR/2001/REC-SVG-20010904/DTD/svg10.dtd">
<svg version="1.0" xmlns="http://www.w3.org/2000/svg"
 width="172.000000pt" height="172.000000pt" viewBox="0 0 172.000000 172.000000"
 preserveAspectRatio="xMidYMid meet">
<metadata>
Created by potrace 1.14, written by Peter Selinger 2001-2017
</metadata>
<g transform="translate(0.000000,172.000000) scale(0.100000,-0.100000)"
fill="#000000" stroke="none">
<path d="M720 1687 c-3 -3 -21 -8 -40 -11 -53 -8 -114 -31 -158 -61 -139 -92
-164 -317 -47 -424 74 -68 148 -96 463 -175 225 -57 326 -89 431 -137 130 -60
233 -145 288 -237 14 -24 27 -42 28 -40 2 2 10 32 19 68 21 91 15 297 -13 405
-24 91 -97 245 -144 302 -123 148 -257 230 -467 284 -71 19 -348 39 -360 26z"/>
<path d="M19 1118 c-18 -77 -19 -270 -3 -361 45 -252 196 -462 409 -570 45
-22 217 -87 230 -86 6 0 88 -11 125 -17 37 -6 190 -5 225 1 210 39 309 134
309 300 1 127 -27 180 -130 241 -38 22 -192 79 -239 88 -56 11 -351 88 -425
112 -220 69 -384 177 -456 300 -14 24 -27 44 -29 44 -2 0 -9 -24 -16 -52z"/>
</g>
</svg>
