<?xml version="1.0" encoding="utf-8"?>
<!-- Generator: Adobe Illustrator 26.2.1, SVG Export Plug-In . SVG Version: 6.00 Build 0)  -->
<svg version="1.1" id="Layer_1" xmlns="http://www.w3.org/2000/svg" xmlns:xlink="http://www.w3.org/1999/xlink" x="0px" y="0px"
	 viewBox="0 0 512 512" style="enable-background:new 0 0 512 512;" xml:space="preserve">
<style type="text/css">
	.st0{fill:#2E4756;}
	.st1{fill:#E2E2E2;}
	.st2{fill:#C9C9C9;}
	.st3{fill:#AAAAAA;}
	.st4{fill:#939393;}
	.st5{fill:#FFFFFF;}
	.st6{fill:#04212F;}
	.st7{fill:#55BEBE;}
</style>
<path class="st0" d="M0,357.3V26c0-5.5,4.7-10,10.4-10h491.1c5.7,0,10.4,4.5,10.4,10v331.3H0z"/>
<path class="st1" d="M512,357.3v25.1c0,3.5-4.7,6.3-10.4,6.3H10.4c-5.7,0-10.4-2.8-10.4-6.3v-25.1H512z"/>
<polygon class="st2" points="181.3,463.4 330.7,463.4 320,388.7 192,388.7 "/>
<polygon class="st3" points="320,388.7 192,388.7 185.4,435.3 322.5,406.1 "/>
<rect x="144" y="463.4" class="st1" width="224" height="10.7"/>
<polygon class="st4" points="192,388.7 320,388.7 320.7,393.8 188.7,412 "/>
<path class="st5" d="M28.3,33.9h455.3c5.8,0,10.5,4.7,10.5,10.5V329c0,5.8-4.7,10.5-10.5,10.5H28.3c-5.8,0-10.5-4.7-10.5-10.5V44.3
	C17.9,38.6,22.6,33.9,28.3,33.9z"/>
<g>
	<rect x="96" y="229.3" class="st6" width="149.3" height="10.7"/>
	<rect x="277.3" y="293.3" class="st6" width="138.7" height="10.7"/>
	<rect x="277.3" y="261.3" class="st6" width="138.7" height="10.7"/>
	<rect x="277.3" y="229.3" class="st6" width="138.7" height="10.7"/>
	<rect x="277.3" y="197.3" class="st6" width="138.7" height="10.7"/>
	<rect x="277.3" y="165.3" class="st6" width="138.7" height="10.7"/>
	<rect x="277.3" y="133.3" class="st6" width="138.7" height="10.7"/>
	<rect x="277.3" y="101.3" class="st6" width="138.7" height="10.7"/>
	<rect x="277.3" y="69.3" class="st6" width="138.7" height="10.7"/>
	<rect x="96" y="261.3" class="st6" width="149.3" height="10.7"/>
	<rect x="96" y="293.3" class="st6" width="149.3" height="10.7"/>
</g>
<path class="st7" d="M234.7,197.3h-128c-5.9,0-10.7-4.8-10.7-10.7V80c0-5.9,4.8-10.7,10.7-10.7h128c5.9,0,10.7,4.8,10.7,10.7v106.7
	C245.3,192.5,240.5,197.3,234.7,197.3z"/>
<path class="st5" d="M170.7,93.8c-21.9,0-39.6,17.7-39.6,39.6c0,21.9,17.7,39.6,39.6,39.6c21.9,0,39.6-17.7,39.6-39.6
	C210.2,111.5,192.5,93.8,170.7,93.8L170.7,93.8z M136.7,133.3c0-4.8,1.1-9.3,2.9-13.4l16.2,43.2
	C144.6,157.7,136.7,146.4,136.7,133.3L136.7,133.3z M170.7,166.4c-3.2,0-6.5-0.5-9.6-1.3l10.2-28.8l10.4,27.8l0.2,0.5
	C178.3,165.8,174.5,166.4,170.7,166.4z M175.3,117.8c2-0.1,3.9-0.3,3.9-0.3c1.8-0.2,1.6-2.8-0.2-2.7c0,0-5.5,0.4-9,0.4
	c-3.3,0-8.9-0.4-8.9-0.4c-1.8-0.1-2,2.6-0.2,2.7c0,0,1.7,0.2,3.6,0.3l5.3,14.1l-7.4,21.7l-12.3-35.8c2-0.1,3.9-0.3,3.9-0.3
	c1.8-0.2,1.6-2.8-0.2-2.7c0,0-5.5,0.4-9,0.4l-2.2,0c6.1-9,16.5-14.9,28.3-14.9c8.8,0,16.9,3.3,22.9,8.7l-0.4,0
	c-3.3,0-5.7,2.8-5.7,5.9c0,2.7,1.6,5,3.3,7.7c1.3,2.2,2.8,5,2.8,9.1c0,2.8-1.1,6.1-2.6,10.7l-3.4,11
	C187.6,153.4,175.3,117.8,175.3,117.8z M187.7,161.9l10.4-29.2c1.9-4.7,2.6-8.5,2.6-11.8c0-1.2-0.1-2.3-0.2-3.4
	c2.7,4.8,4.2,10.3,4.2,15.9C204.6,145.5,197.8,156.2,187.7,161.9z"/>
</svg>
