<?xml version="1.0" encoding="utf-8"?>
<!-- Generator: Adobe Illustrator 26.2.1, SVG Export Plug-In . SVG Version: 6.00 Build 0)  -->
<svg version="1.1" id="Layer_1" xmlns="http://www.w3.org/2000/svg" xmlns:xlink="http://www.w3.org/1999/xlink" x="0px" y="0px"
	 viewBox="0 0 512 512" style="enable-background:new 0 0 512 512;" xml:space="preserve">
<style type="text/css">
	.st0{fill:#2E4756;}
	.st1{fill:#E2E2E2;}
	.st2{fill:#C9C9C9;}
	.st3{fill:#AAAAAA;}
	.st4{fill:#939393;}
	.st5{fill:#FFFFFF;}
	.st6{fill:#55BEBE;}
	.st7{fill:#FF2957;}
</style>
<path class="st0" d="M0,357.3V26c0-5.5,4.7-10,10.4-10h491.1c5.7,0,10.4,4.5,10.4,10v331.3H0z"/>
<path class="st1" d="M512,357.3v25.1c0,3.5-4.7,6.3-10.4,6.3H10.4c-5.7,0-10.4-2.8-10.4-6.3v-25.1H512z"/>
<polygon class="st2" points="181.3,463.4 330.7,463.4 320,388.7 192,388.7 "/>
<polygon class="st3" points="320,388.7 192,388.7 185.4,435.3 322.5,406.1 "/>
<rect x="144" y="463.4" class="st1" width="224" height="10.7"/>
<polygon class="st4" points="192,388.7 320,388.7 320.7,393.8 188.7,412 "/>
<path class="st5" d="M28.3,33.9h455.3c5.8,0,10.5,4.7,10.5,10.5V329c0,5.8-4.7,10.5-10.5,10.5H28.3c-5.8,0-10.5-4.7-10.5-10.5V44.3
	C17.9,38.6,22.6,33.9,28.3,33.9z"/>
<path class="st6" d="M393.1,304H107.8c-6.5,0-11.8-4.5-11.8-10.1V79.4c0-5.6,5.3-10.1,11.8-10.1h296.5c6.5,0,11.8,4.5,11.8,10.1
	v205.2C415.8,295.2,405.5,304,393.1,304z"/>
<polygon class="st7" points="284.1,304 293.6,261.7 253.9,224.7 214.3,261.7 223.8,304 "/>
<path class="st1" d="M253.9,208.9c-19.7,0-37-3.6-51.4-10.7c-11.7-5.8-21.5-14-29-24.2c-12.8-17.4-14.6-34.9-14.7-35.6l15.8-1.5
	c0,0.1,1.6,14.4,12.1,28.3c13.9,18.5,36.5,27.9,67.2,27.9c30.6,0,53.3-9.4,67.2-27.9c10.5-13.9,12.1-28.2,12.1-28.4l15.8,1.5
	c-0.1,0.7-1.9,18.2-14.7,35.6c-7.5,10.2-17.3,18.4-29,24.2C291,205.3,273.7,208.9,253.9,208.9z"/>
<g>
	<path class="st5" d="M238.1,201c0-8.8,7.1-15.8,15.8-15.8c8.8,0,15.9,7.1,15.9,15.8c0,8.8-7.1,15.9-15.9,15.9
		C245.2,216.8,238.1,209.7,238.1,201z"/>
	<path class="st5" d="M150.9,137.6c0-8.8,7.1-15.8,15.9-15.8c8.8,0,15.8,7.1,15.8,15.8c0,8.8-7.1,15.9-15.8,15.9
		C158,153.4,150.9,146.3,150.9,137.6z"/>
	<path class="st5" d="M325.3,137.6c0-8.8,7.1-15.8,15.8-15.8c8.8,0,15.9,7.1,15.9,15.8c0,8.8-7.1,15.9-15.9,15.9
		C332.4,153.4,325.3,146.3,325.3,137.6z"/>
</g>
</svg>
