<?xml version="1.0" encoding="iso-8859-1"?>
<!-- Generator: Adobe Illustrator 19.0.0, SVG Export Plug-In . SVG Version: 6.00 Build 0)  -->
<svg version="1.1" id="Layer_1" xmlns="http://www.w3.org/2000/svg" xmlns:xlink="http://www.w3.org/1999/xlink" x="0px" y="0px"
	 viewBox="0 0 512 512" style="enable-background:new 0 0 512 512;" xml:space="preserve">
<path style="fill:#547475;" d="M379.669,21.655H154.395v36.132h225.274c9.979,0,18.07-8.089,18.07-18.067
	S389.648,21.655,379.669,21.655z"/>
<polygon style="fill:#688787;" points="154.395,21.655 114.259,39.722 154.395,57.788 "/>
<g>
	<rect x="335.139" y="21.654" style="fill:#53CAF9;" width="27.307" height="36.132"/>
	<rect x="219.352" y="96.083" style="fill:#53CAF9;" width="73.297" height="34.134"/>
</g>
<g style="opacity:0.1;">
	<rect x="219.352" y="96.083" style="fill:#231F20;" width="23.843" height="34.134"/>
</g>
<path style="fill:#547475;" d="M465.92,130.217h25.061c7.143,0,12.935,5.79,12.935,12.935V477.41
	c0,7.143-5.792,12.935-12.935,12.935H21.019c-7.143,0-12.935-5.792-12.935-12.935V143.151c0-7.144,5.792-12.935,12.935-12.935
	h419.034"/>
<polyline style="fill:#DBDDDD;" points="52.004,456.1 8.084,456.1 8.084,211.556 503.916,211.556 503.916,456.1 75.724,456.1 "/>
<g>
	<path style="fill:#231F20;" d="M490.981,122.132H465.92c-4.466,0-8.084,3.618-8.084,8.084c0,4.466,3.618,8.084,8.084,8.084h25.061
		c2.674,0,4.851,2.176,4.851,4.851v60.32H16.168v-60.32c0-2.674,2.176-4.851,4.851-4.851h198.333h73.297h147.404
		c4.466,0,8.084-3.618,8.084-8.084s-3.618-8.084-8.084-8.084h-139.32V96.083c0-4.466-3.618-8.084-8.084-8.084h-73.297
		c-4.466,0-8.084,3.618-8.084,8.084v26.049H21.019C9.429,122.132,0,131.562,0,143.151v68.404V456.1v21.31
		c0,11.59,9.429,21.019,21.019,21.019h469.962c11.59,0,21.019-9.429,21.019-21.019V456.1V211.556v-68.404
		C512,131.562,502.571,122.132,490.981,122.132z M227.436,104.167h57.128v17.965h-57.128V104.167z M490.981,482.259H21.019
		c-2.674,0-4.851-2.176-4.851-4.851v-13.226h35.836c4.466,0,8.084-3.618,8.084-8.084s-3.618-8.084-8.084-8.084H16.168V219.64
		h479.663v228.376H75.724c-4.466,0-8.084,3.618-8.084,8.084c0,4.466,3.618,8.084,8.084,8.084h420.107v13.226
		C495.832,480.084,493.655,482.259,490.981,482.259z"/>
	<path style="fill:#231F20;" d="M110.941,47.093l40.136,18.067c0.017,0.008,0.036,0.013,0.053,0.02
		c0.207,0.092,0.419,0.171,0.636,0.246c0.048,0.017,0.096,0.038,0.144,0.053c0.236,0.077,0.477,0.14,0.723,0.195
		c0.029,0.006,0.057,0.016,0.086,0.023c0.255,0.054,0.515,0.095,0.778,0.124c0.018,0.002,0.037,0.006,0.055,0.009
		c0.267,0.028,0.539,0.042,0.815,0.043c0.009,0,0.018,0.001,0.027,0.001l0,0l0,0h180.739h27.307h17.227
		c14.421,0,26.154-11.732,26.154-26.151s-11.733-26.151-26.154-26.151h-17.227h-27.307H154.395c-0.079,0-0.155,0.01-0.233,0.012
		c-0.107,0.003-0.213,0.009-0.32,0.016c-0.222,0.015-0.441,0.04-0.659,0.072c-0.085,0.013-0.169,0.023-0.254,0.039
		c-0.631,0.115-1.234,0.303-1.804,0.555c-0.015,0.006-0.032,0.011-0.047,0.018L110.941,32.35c-2.901,1.305-4.766,4.191-4.766,7.372
		C106.175,42.903,108.04,45.787,110.941,47.093z M162.48,29.74h164.571v19.964H162.48V29.74z M389.655,39.722
		c0,5.504-4.479,9.982-9.986,9.982h-9.143V29.74h9.143C385.176,29.74,389.655,34.217,389.655,39.722z M354.358,29.74v19.964h-11.139
		V29.74H354.358z M146.311,34.159v11.124l-12.357-5.562L146.311,34.159z"/>
	<path style="fill:#231F20;" d="M51.379,163.857c-4.466,0-8.084,3.618-8.084,8.084s3.618,8.084,8.084,8.084h30.899
		c4.466,0,8.084-3.618,8.084-8.084s-3.618-8.084-8.084-8.084H51.379z"/>
	<path style="fill:#231F20;" d="M421.636,171.941c0,4.466,3.618,8.084,8.084,8.084h30.899c4.466,0,8.084-3.618,8.084-8.084
		s-3.618-8.084-8.084-8.084H429.72C425.254,163.857,421.636,167.475,421.636,171.941z"/>
	<path style="fill:#231F20;" d="M91.052,257.666c3.157-3.158,3.157-8.276,0-11.433c-3.158-3.156-8.276-3.156-11.433,0
		l-35.035,35.033c-3.157,3.158-3.157,8.276,0,11.433c1.579,1.578,3.649,2.367,5.717,2.367c2.068,0,4.138-0.789,5.717-2.367
		L91.052,257.666z"/>
	<path style="fill:#231F20;" d="M75.311,318.64c1.578,1.578,3.648,2.367,5.716,2.367s4.138-0.789,5.717-2.368l59.836-59.838
		c3.157-3.157,3.157-8.276-0.001-11.432c-3.156-3.156-8.275-3.157-11.432,0.001l-59.836,59.838
		C72.153,310.365,72.153,315.484,75.311,318.64z"/>
	<path style="fill:#231F20;" d="M69.786,324.164c-3.158-3.156-8.276-3.156-11.433,0l-5.562,5.562c-3.157,3.158-3.157,8.276,0,11.433
		c1.579,1.578,3.649,2.367,5.717,2.367s4.138-0.789,5.717-2.367l5.562-5.562C72.943,332.44,72.943,327.323,69.786,324.164z"/>
</g>
<g style="opacity:0.2;">
	<path style="fill:#231F20;" d="M33.415,477.409V143.151c0-7.144,5.792-12.935,12.935-12.935H21.019
		c-7.143,0-12.935,5.79-12.935,12.935V477.41c0,7.143,5.792,12.935,12.935,12.935h25.331
		C39.206,490.343,33.415,484.552,33.415,477.409z"/>
</g>
<g>
</g>
<g>
</g>
<g>
</g>
<g>
</g>
<g>
</g>
<g>
</g>
<g>
</g>
<g>
</g>
<g>
</g>
<g>
</g>
<g>
</g>
<g>
</g>
<g>
</g>
<g>
</g>
<g>
</g>
</svg>
