<?xml version="1.0" encoding="utf-8"?>
<!-- Generator: Adobe Illustrator 26.2.1, SVG Export Plug-In . SVG Version: 6.00 Build 0)  -->
<svg version="1.1" id="Layer_1" xmlns="http://www.w3.org/2000/svg" xmlns:xlink="http://www.w3.org/1999/xlink" x="0px" y="0px"
	 viewBox="0 0 512 512" style="enable-background:new 0 0 512 512;" xml:space="preserve">
<style type="text/css">
	.st0{fill:#2E4756;}
	.st1{fill:#E2E2E2;}
	.st2{fill:#C9C9C9;}
	.st3{fill:#AAAAAA;}
	.st4{fill:#939393;}
	.st5{fill:#FFFFFF;}
	.st6{fill:#55BEBE;}
	.st7{fill:#FF2957;}
</style>
<g>
	<path class="st0" d="M0,357.3V26c0-5.5,4.7-10,10.4-10h491.1c5.7,0,10.4,4.5,10.4,10v331.3H0z"/>
	<path class="st1" d="M512,357.3v25.1c0,3.5-4.7,6.3-10.4,6.3H10.4c-5.7,0-10.4-2.8-10.4-6.3v-25.1H512z"/>
	<polygon class="st2" points="181.3,463.4 330.7,463.4 320,388.7 192,388.7 	"/>
	<polygon class="st3" points="320,388.7 192,388.7 185.4,435.3 322.5,406.1 	"/>
	<rect x="144" y="463.4" class="st1" width="224" height="10.7"/>
	<polygon class="st4" points="192,388.7 320,388.7 320.7,393.8 188.7,412 	"/>
	<path class="st5" d="M28.3,33.9h455.3c5.8,0,10.5,4.7,10.5,10.5V329c0,5.8-4.7,10.5-10.5,10.5H28.3c-5.8,0-10.5-4.7-10.5-10.5V44.3
		C17.9,38.6,22.6,33.9,28.3,33.9z"/>
</g>
<g>
	<path class="st0" d="M416,79.4v21.5H96V79.4c0-5.6,5.3-10.1,11.8-10.1h296.5C410.8,69.3,416,73.8,416,79.4z"/>
	<path class="st6" d="M416,100.9v183.7c-0.3,10.6-10.6,19.4-23,19.4H107.8c-6.5,0-11.8-4.5-11.8-10.1v-193H416z"/>
	<circle class="st5" cx="397.3" cy="85.1" r="4.7"/>
	<circle class="st5" cx="378.7" cy="85.1" r="4.7"/>
	<circle class="st5" cx="360.1" cy="85.1" r="4.7"/>
</g>
<path class="st7" d="M256,132.9c-38.4,0-69.5,31.1-69.5,69.5s31.1,69.5,69.5,69.5s69.5-31.1,69.5-69.5
	C325.3,164,294.3,132.9,256,132.9L256,132.9z M196.3,202.3c0-8.4,1.9-16.3,5.1-23.5l28.4,75.8C210.2,245.1,196.3,225.2,196.3,202.3
	L196.3,202.3z M256,260.4c-5.6,0-11.4-0.9-16.9-2.3l17.9-50.6l18.3,48.8l0.4,0.9C269.3,259.3,262.7,260.4,256,260.4z M264.1,175
	c3.5-0.2,6.8-0.5,6.8-0.5c3.2-0.4,2.8-4.9-0.4-4.7c0,0-9.7,0.7-15.8,0.7c-5.8,0-15.6-0.7-15.6-0.7c-3.2-0.2-3.5,4.6-0.4,4.7
	c0,0,3,0.4,6.3,0.5l9.3,24.8l-13,38.1L219.8,175c3.5-0.2,6.8-0.5,6.8-0.5c3.2-0.4,2.8-4.9-0.4-4.7c0,0-9.7,0.7-15.8,0.7h-3.9
	c10.7-15.8,29-26.2,49.7-26.2c15.4,0,29.7,5.8,40.2,15.3h-0.7c-5.8,0-10,4.9-10,10.4c0,4.7,2.8,8.8,5.8,13.5c2.3,3.9,4.9,8.8,4.9,16
	c0,4.9-1.9,10.7-4.6,18.8l-6,19.3L264.1,175z M285.8,252.5l18.3-51.3c3.3-8.3,4.6-14.9,4.6-20.7c0-2.1-0.2-4-0.4-6
	c4.7,8.4,7.4,18.1,7.4,27.9C315.5,223.7,303.6,242.5,285.8,252.5z"/>
</svg>
