<?xml version="1.0" standalone="no"?>
<!DOCTYPE svg PUBLIC "-//W3C//DTD SVG 20010904//EN"
 "http://www.w3.org/TR/2001/REC-SVG-20010904/DTD/svg10.dtd">
<svg version="1.0" xmlns="http://www.w3.org/2000/svg"
 width="700.000000pt" height="700.000000pt" viewBox="0 0 700.000000 700.000000"
 preserveAspectRatio="xMidYMid meet">
<metadata>
Created by potrace 1.14, written by Peter Selinger 2001-2017
</metadata>
<g transform="translate(0.000000,700.000000) scale(0.100000,-0.100000)"
fill="#000000" stroke="none">
<path d="M4017 6554 c-1 -1 -56 -4 -122 -7 -106 -5 -161 -11 -320 -32 -22 -3
-78 -13 -125 -21 -47 -9 -96 -18 -110 -20 -388 -70 -908 -219 -1774 -509
l-520 -174 -54 -58 c-221 -235 -346 -412 -474 -667 -74 -147 -123 -291 -164
-483 -5 -25 -9 -24 101 -8 17 2 57 7 90 10 33 3 78 8 100 10 22 3 74 7 116 10
41 3 102 8 135 10 317 23 829 23 1104 0 148 -13 172 -16 335 -36 90 -11 93
-12 230 -34 155 -25 323 -60 475 -99 307 -78 281 -72 355 -82 59 -7 206 -7
243 0 15 3 43 8 62 11 19 4 112 26 205 50 149 39 495 112 610 129 22 4 54 8
70 11 54 8 104 15 157 20 29 3 67 8 83 10 17 2 59 7 95 10 36 3 88 8 115 10
251 23 852 23 1075 0 19 -1 71 -6 116 -9 44 -3 98 -8 120 -11 21 -3 95 -12
164 -20 69 -9 133 -18 143 -21 23 -7 22 -1 -12 104 -59 180 -177 433 -268 575
-23 37 -43 70 -43 72 0 16 -223 315 -291 390 -15 16 -45 50 -67 74 l-40 44
-16 -57 c-34 -118 -76 -191 -156 -272 -96 -98 -285 -206 -400 -229 l-35 -7 40
43 c22 23 45 49 52 56 26 30 86 137 103 187 66 185 36 369 -89 563 -21 33 -43
63 -48 66 -5 3 -8 -44 -7 -107 2 -96 -6 -170 -29 -261 -13 -52 -53 -136 -92
-195 -87 -131 -217 -228 -393 -294 -61 -23 -68 -20 -30 11 90 75 149 178 187
330 78 304 16 766 -118 887 -21 19 -21 19 -22 -10 -3 -111 -30 -260 -70 -396
-30 -101 -104 -257 -139 -292 -19 -19 -19 -18 0 42 54 172 42 353 -30 457 -90
131 -249 197 -518 214 -57 3 -104 6 -105 5z"/>
<path d="M5398 4375 c-2 -1 -78 -5 -169 -8 -91 -4 -172 -9 -180 -11 -8 -3 -41
-7 -74 -10 -33 -4 -72 -8 -88 -11 -15 -3 -55 -10 -90 -15 -176 -31 -264 -56
-401 -116 -108 -47 -158 -84 -199 -146 -74 -112 -90 -272 -51 -498 57 -325
140 -517 301 -690 123 -133 325 -240 503 -266 19 -2 48 -7 65 -11 28 -5 262
-5 375 1 312 17 499 73 651 198 76 62 180 264 243 472 64 208 81 334 81 576
-1 159 -3 179 -23 223 -60 131 -262 240 -516 278 -39 6 -82 12 -96 15 -14 2
-86 7 -160 10 -74 3 -143 7 -152 8 -9 2 -18 3 -20 1z"/>
<path d="M1367 4364 c-2 -2 -28 -7 -58 -10 -97 -9 -254 -42 -335 -69 -108 -36
-191 -84 -246 -143 -55 -58 -68 -82 -83 -147 -13 -55 -13 -65 4 -180 6 -45 14
-98 16 -120 6 -40 11 -76 22 -135 3 -19 7 -44 8 -55 7 -78 64 -320 96 -408
103 -279 291 -428 607 -482 159 -26 284 -37 434 -37 186 0 332 33 480 108 103
52 147 84 249 184 117 114 194 236 245 387 25 76 30 92 38 143 5 24 7 40 22
145 3 28 9 59 11 70 12 53 12 273 -1 320 -39 147 -122 225 -320 299 -140 53
-343 99 -495 112 -36 3 -77 8 -91 11 -30 7 -597 13 -603 7z"/>
<path d="M6768 3898 c-61 -106 -101 -226 -122 -364 -17 -103 -37 -232 -41
-254 -3 -14 -7 -38 -11 -55 -9 -51 -62 -202 -90 -257 -74 -149 -201 -302 -332
-400 -123 -92 -306 -178 -457 -213 -74 -17 -90 -20 -195 -34 -67 -9 -315 -7
-385 3 -234 34 -474 122 -660 241 -245 158 -425 358 -542 605 -55 116 -126
298 -170 433 -19 62 -43 127 -52 145 -47 96 -166 143 -282 112 -62 -17 -124
-84 -144 -157 -121 -434 -271 -713 -514 -953 -170 -169 -357 -283 -575 -350
-95 -29 -236 -58 -326 -66 -66 -6 -318 -6 -370 0 -25 3 -67 9 -95 12 -27 3
-88 15 -135 25 -357 82 -600 272 -745 583 -40 85 -78 194 -90 255 -15 78 -35
194 -40 237 -4 27 -9 57 -11 66 -3 10 -7 30 -10 45 -14 93 -29 136 -84 245
-46 94 -90 148 -90 112 0 -10 -4 -50 -8 -89 -9 -93 -9 -576 1 -693 6 -78 15
-153 42 -332 3 -20 35 -173 50 -240 44 -197 147 -474 252 -681 196 -388 450
-694 828 -1002 5 -5 48 -35 95 -68 259 -184 545 -329 854 -434 116 -39 316
-96 386 -109 14 -3 50 -10 80 -15 30 -6 65 -13 78 -16 13 -2 60 -9 105 -15 45
-6 96 -13 112 -16 171 -25 720 -26 861 0 11 2 46 7 79 11 32 4 67 8 76 10 9 2
34 6 55 10 79 12 102 17 224 46 69 17 132 32 140 34 85 20 327 105 444 157
615 268 1113 692 1420 1208 31 52 61 102 66 110 26 42 118 238 156 332 63 158
133 387 159 523 19 104 45 257 50 300 3 28 8 73 11 100 10 78 13 643 4 710 -4
33 -10 86 -13 118 -3 32 -7 61 -10 63 -2 3 -16 -14 -29 -38z"/>
</g>
</svg>
