<?xml version="1.0" standalone="no"?>
<!DOCTYPE svg PUBLIC "-//W3C//DTD SVG 20010904//EN"
 "http://www.w3.org/TR/2001/REC-SVG-20010904/DTD/svg10.dtd">
<svg version="1.0" xmlns="http://www.w3.org/2000/svg"
 width="1312.000000pt" height="1312.000000pt" viewBox="0 0 1312.000000 1312.000000"
 preserveAspectRatio="xMidYMid meet">
<metadata>
Created by potrace 1.14, written by Peter Selinger 2001-2017
</metadata>
<g transform="translate(0.000000,1312.000000) scale(0.100000,-0.100000)"
fill="#000000" stroke="none">
<path d="M8750 13107 c-3 -3 -36 -8 -73 -12 -37 -3 -76 -8 -85 -9 -35 -7 -116
-18 -156 -22 -22 -2 -75 -8 -116 -14 -42 -6 -100 -12 -130 -15 -56 -4 -106
-10 -170 -19 -19 -3 -60 -8 -90 -11 -30 -3 -68 -7 -85 -9 -32 -4 -134 -16
-175 -21 -14 -2 -56 -6 -95 -9 -38 -4 -86 -10 -105 -13 -19 -3 -56 -6 -82 -7
-27 -1 -48 -3 -48 -6 0 -4 -10 -6 -22 -6 -13 0 -52 -4 -88 -8 -36 -4 -90 -9
-120 -12 -30 -2 -70 -6 -87 -9 -51 -8 -174 -18 -220 -19 -24 -1 -43 -3 -43 -6
0 -3 -12 -6 -27 -6 -26 0 -133 -9 -213 -18 -19 -3 -60 -7 -90 -11 -30 -3 -84
-8 -120 -11 -36 -3 -76 -7 -90 -10 -14 -2 -49 -7 -79 -9 -87 -8 -161 -34 -198
-70 -18 -17 -30 -35 -26 -38 3 -4 2 -7 -4 -7 -6 0 -13 -8 -16 -17 -24 -77 -39
-133 -43 -160 -4 -31 -2 -33 70 -68 41 -20 99 -40 128 -45 29 -5 67 -12 83
-15 17 -3 55 -10 85 -16 30 -6 64 -12 75 -14 11 -2 75 -14 142 -25 67 -11 132
-23 145 -26 13 -3 36 -7 53 -9 16 -3 64 -11 105 -19 41 -8 93 -18 115 -21 22
-4 60 -10 85 -15 51 -9 215 -39 245 -45 11 -1 31 -6 45 -9 14 -3 39 -7 55 -10
30 -4 75 -11 130 -22 17 -3 44 -7 60 -10 17 -3 64 -12 105 -20 41 -9 89 -18
105 -20 34 -5 47 -8 130 -22 122 -22 191 -34 210 -37 25 -4 183 -33 211 -39
12 -2 37 -7 55 -10 19 -3 45 -8 59 -11 14 -2 63 -11 110 -19 119 -22 142 -26
170 -31 14 -3 37 -8 53 -10 44 -8 78 -14 142 -26 33 -6 72 -12 86 -14 14 -2
75 -13 135 -25 60 -11 122 -23 139 -25 32 -5 59 -10 140 -25 54 -10 94 -17
167 -29 l47 -8 -4 28 c-2 16 -7 34 -11 41 -5 7 -9 19 -9 28 -1 8 -7 33 -14 55
-15 49 -18 57 -21 70 -1 6 -11 33 -22 60 -11 28 -22 57 -23 65 -2 8 -4 16 -5
18 -2 1 -3 5 -4 10 -1 4 -10 24 -19 46 -9 21 -17 44 -17 51 0 6 -3 15 -7 19
-5 4 -8 11 -8 14 0 7 -89 234 -131 335 -13 32 -24 63 -24 68 0 6 -8 29 -19 52
-10 23 -31 76 -47 117 -51 133 -93 193 -159 228 -29 15 -232 31 -245 19z"/>
<path d="M4958 12384 c-13 -15 -29 -33 -37 -42 -13 -13 -12 -16 4 -28 10 -8
22 -14 27 -14 4 0 5 -6 2 -13 -3 -8 -27 -14 -66 -15 -71 -2 -123 -15 -188 -45
-46 -21 -114 -62 -140 -84 -124 -103 -205 -177 -285 -263 -12 -14 -4 -26 70
-105 l84 -89 -25 -29 c-13 -16 -24 -32 -24 -35 0 -4 16 -20 36 -36 l36 -28 28
27 c28 27 28 27 42 6 8 -11 47 -54 86 -95 46 -48 82 -98 102 -139 30 -64 89
-137 109 -137 6 0 11 -4 11 -9 0 -5 21 -19 48 -31 26 -12 73 -49 106 -83 72
-76 291 -309 373 -397 34 -36 83 -88 110 -116 26 -28 104 -111 173 -184 69
-73 145 -154 170 -180 47 -50 246 -262 296 -316 16 -16 88 -93 161 -170 72
-76 146 -155 163 -174 182 -198 431 -453 736 -751 112 -109 180 -180 265 -274
48 -54 154 -199 150 -205 -2 -2 3 -9 12 -14 17 -11 90 41 192 136 27 25 79 72
114 105 36 32 153 146 262 253 108 107 227 222 264 255 94 82 183 171 225 224
35 44 102 161 93 161 -3 0 0 7 7 15 7 8 10 15 7 15 -3 0 1 24 9 53 7 28 14 70
14 92 0 39 -2 41 -85 95 -47 30 -85 58 -85 63 0 4 -5 7 -11 7 -6 0 -28 14 -49
30 -21 17 -42 30 -48 30 -6 0 -12 4 -14 8 -1 5 -32 28 -68 52 -36 24 -66 47
-68 52 -2 4 -10 8 -18 8 -8 0 -14 5 -14 10 0 6 -6 10 -13 10 -7 0 -24 11 -39
25 -15 14 -30 25 -33 25 -8 0 -110 74 -113 82 -2 5 -10 8 -17 8 -8 0 -20 6
-27 13 -7 7 -65 49 -128 92 -63 44 -121 85 -128 92 -7 7 -17 13 -22 13 -5 0
-15 6 -22 13 -7 7 -56 41 -108 77 -52 35 -97 66 -100 69 -3 3 -61 44 -130 90
-69 47 -126 89 -128 93 -2 4 -8 8 -12 8 -11 0 -214 142 -218 152 -2 5 -8 8
-14 8 -6 0 -27 14 -48 30 -21 17 -42 30 -48 30 -6 0 -12 4 -14 8 -1 4 -55 43
-118 87 -63 43 -157 108 -208 144 -52 36 -101 71 -110 76 -8 6 -64 44 -123 85
-60 41 -138 95 -174 120 -101 69 -199 138 -211 148 -5 5 -21 15 -34 22 -14 7
-30 18 -37 24 -29 26 -42 36 -47 36 -3 0 -47 29 -98 65 -51 36 -128 89 -170
118 -42 29 -83 63 -91 77 -41 68 -121 127 -204 149 -23 6 -48 17 -55 24 -16
16 -195 134 -211 140 -6 2 0 17 14 36 l24 32 -35 30 c-19 17 -47 42 -62 55
l-28 24 -22 -26z"/>
<path d="M5458 12371 c-41 -9 -109 -50 -144 -88 -19 -21 -21 -28 -11 -44 6
-10 14 -19 17 -19 3 0 17 -9 30 -19 36 -28 134 -103 166 -126 15 -11 33 -26
40 -32 7 -7 15 -13 19 -13 3 0 28 -17 54 -37 27 -21 90 -67 140 -103 51 -36
107 -76 126 -90 18 -14 66 -47 106 -75 40 -27 77 -54 84 -60 6 -5 18 -14 27
-20 10 -5 75 -50 145 -100 70 -49 168 -118 218 -153 132 -92 485 -327 493
-328 4 0 20 -6 36 -13 39 -16 222 -70 259 -77 17 -2 39 -10 51 -16 11 -6 22
-10 24 -9 1 1 28 -3 60 -10 31 -6 64 -13 72 -14 8 -2 15 -4 15 -5 0 -1 9 -3
21 -5 11 -3 106 -23 210 -46 104 -23 200 -43 214 -45 14 -1 37 -7 51 -12 15
-6 29 -9 32 -6 2 2 16 0 30 -5 14 -5 42 -12 64 -16 44 -6 108 -20 123 -25 3
-1 8 -2 11 -2 3 0 23 -4 45 -9 21 -5 57 -12 78 -15 22 -3 48 -10 58 -15 10 -5
18 -8 18 -6 0 3 39 -4 88 -14 48 -10 130 -28 182 -39 52 -10 118 -25 146 -33
29 -7 59 -12 68 -11 9 1 16 -2 16 -7 0 -6 4 -8 9 -4 5 3 12 1 16 -5 4 -6 10
-8 15 -5 9 6 114 -18 160 -36 28 -10 79 -93 67 -106 -10 -9 -186 -9 -247 1
-39 6 -103 17 -190 32 -14 3 -41 9 -60 14 -19 5 -50 12 -68 15 -28 5 -301 71
-377 91 -11 3 -31 7 -45 10 -14 3 -47 11 -75 19 -27 8 -61 16 -75 19 -14 3
-45 10 -70 17 -25 6 -52 12 -60 14 -8 2 -35 8 -60 15 -25 6 -54 12 -65 14 -11
2 -53 11 -92 20 -167 36 -348 58 -328 39 21 -20 277 -193 285 -193 4 0 10 -4
12 -8 2 -7 152 -112 300 -212 90 -61 223 -154 228 -159 3 -3 13 -10 22 -16 16
-9 57 -37 208 -142 224 -155 368 -251 385 -256 11 -3 57 -17 102 -30 45 -14
95 -28 110 -31 15 -2 62 -11 103 -20 135 -26 344 -42 369 -27 17 11 104 296
127 421 3 14 11 52 19 85 19 82 46 205 51 235 5 23 65 330 78 395 3 17 8 44
11 60 2 17 7 41 10 55 13 61 15 72 31 175 3 17 10 57 16 90 18 101 22 147 18
223 -4 69 -70 150 -154 188 -65 29 -237 74 -298 77 -16 1 -28 4 -28 7 0 3 -12
6 -27 7 -16 1 -44 4 -63 7 -19 3 -51 8 -70 10 -84 12 -172 26 -200 31 -14 3
-38 7 -55 9 -26 4 -96 16 -190 32 -16 3 -43 7 -60 9 -16 1 -30 4 -30 5 0 1
-13 3 -30 5 -16 2 -50 9 -75 14 -25 6 -61 13 -80 15 -19 3 -46 8 -60 11 -14 4
-34 7 -45 9 -24 4 -118 20 -125 21 -3 1 -14 4 -25 8 -11 3 -41 8 -66 11 -25 3
-66 10 -90 15 -60 14 -108 22 -144 26 -16 2 -30 5 -30 6 0 1 -9 3 -20 4 -11 2
-33 6 -50 9 -16 4 -39 8 -50 10 -11 2 -33 6 -50 9 -16 3 -48 9 -70 13 -64 10
-79 13 -215 39 -41 8 -93 17 -115 20 -22 3 -80 14 -130 24 -49 11 -97 19 -105
19 -8 0 -26 3 -40 7 -14 3 -38 8 -55 11 -16 3 -75 14 -130 25 -55 10 -111 21
-125 23 -14 3 -25 5 -25 6 0 1 -22 3 -49 6 -27 3 -57 9 -66 14 -10 5 -20 7
-22 4 -3 -2 -27 0 -54 7 -27 6 -62 13 -79 15 -16 2 -77 13 -135 25 -110 21
-130 25 -194 35 -22 3 -80 15 -130 25 -50 11 -100 21 -111 23 -11 2 -47 11
-80 19 -33 9 -73 18 -90 21 -16 3 -41 8 -55 11 -46 10 -195 14 -232 6z"/>
<path d="M3840 11930 c-91 -44 -88 -42 -330 -271 -132 -124 -170 -184 -173
-271 -2 -69 34 -147 110 -242 32 -39 62 -75 68 -81 7 -5 36 -39 66 -75 30 -36
56 -67 59 -70 3 -3 21 -25 40 -50 19 -24 52 -63 72 -85 21 -22 38 -44 38 -49
0 -5 6 -14 14 -20 12 -10 60 -66 215 -255 20 -24 45 -55 56 -67 11 -13 31 -38
45 -55 14 -18 52 -65 85 -104 33 -40 94 -114 137 -166 42 -52 85 -104 95 -116
10 -11 32 -38 50 -60 52 -63 72 -87 86 -103 11 -13 43 -52 117 -143 8 -10 22
-27 30 -37 8 -9 32 -37 52 -61 20 -24 70 -84 110 -134 40 -49 77 -95 83 -101
5 -7 26 -31 45 -55 19 -24 61 -75 93 -114 32 -38 63 -77 70 -85 7 -8 73 -89
147 -180 74 -91 138 -169 143 -175 4 -5 17 -21 28 -35 12 -14 56 -68 98 -120
42 -52 83 -102 91 -110 9 -8 29 -33 45 -55 16 -22 50 -65 76 -95 39 -47 431
-535 524 -654 17 -21 38 -48 47 -60 10 -11 21 -25 25 -31 5 -5 24 -30 43 -55
19 -25 40 -52 47 -60 14 -18 97 -124 133 -171 14 -18 30 -37 35 -43 6 -6 43
-55 84 -110 l73 -99 82 7 c138 10 175 28 291 134 97 89 218 186 422 337 180
133 263 225 263 289 -1 51 -49 139 -115 212 -5 6 -35 40 -65 75 -30 35 -68 78
-85 95 -16 18 -53 58 -82 91 -28 32 -67 74 -85 94 -18 19 -85 90 -148 158
-136 146 -452 476 -710 741 -100 103 -512 529 -586 606 -33 34 -122 128 -199
209 -77 81 -156 165 -175 185 -33 35 -166 180 -219 238 -23 27 -233 250 -301
322 -101 106 -239 252 -355 375 -71 76 -150 159 -175 185 -25 26 -115 121
-200 211 -267 281 -297 309 -370 342 -46 21 -133 30 -160 17z"/>
<path d="M3472 10873 c-31 -15 -57 -39 -133 -123 -84 -94 -298 -462 -313 -540
-1 -3 -4 -9 -7 -15 -6 -9 -62 -172 -64 -185 -1 -3 -5 -23 -10 -45 -4 -22 -10
-47 -11 -55 -6 -25 -16 -143 -17 -180 0 -44 11 -196 18 -235 3 -16 8 -46 11
-65 17 -99 22 -267 10 -323 -10 -44 -47 -137 -54 -137 -4 0 -13 -13 -20 -28
-22 -50 -176 -200 -307 -300 -17 -12 -64 -47 -105 -77 -101 -75 -130 -114
-120 -161 5 -19 20 -53 35 -76 31 -47 140 -173 207 -240 26 -25 54 -61 63 -78
17 -32 16 -33 -17 -67 -50 -53 -128 -97 -193 -109 -5 -1 -26 -8 -46 -17 l-36
-15 2 -75 c3 -84 22 -149 64 -221 l29 -50 -44 -28 c-25 -15 -47 -28 -50 -28
-9 0 -81 -80 -83 -93 -1 -6 -4 -53 -6 -103 -4 -82 -3 -92 13 -96 10 -3 57 -36
103 -74 l85 -69 0 -185 c0 -166 5 -250 19 -321 3 -13 8 -37 11 -54 14 -79 119
-215 165 -215 10 0 20 -4 23 -9 3 -5 23 -12 43 -16 21 -5 45 -10 53 -11 58
-13 199 -17 660 -20 455 -2 597 -6 608 -14 1 -2 10 -3 20 -4 122 -13 259 -101
341 -218 8 -13 20 -28 26 -35 5 -6 30 -41 55 -78 25 -36 73 -104 108 -151 34
-47 62 -87 62 -90 0 -3 5 -10 10 -17 6 -7 24 -30 40 -52 16 -22 33 -44 38 -50
30 -38 192 -287 192 -294 0 -6 6 -14 13 -18 6 -4 21 -25 31 -45 11 -21 23 -38
28 -38 4 0 8 -5 8 -10 0 -6 24 -50 54 -98 52 -86 141 -239 206 -357 52 -94
139 -270 297 -605 25 -52 75 -156 111 -230 35 -74 96 -200 133 -280 103 -216
97 -209 151 -183 15 7 30 13 33 13 6 1 24 7 90 32 28 11 51 19 52 19 4 -1 24
6 98 33 39 14 74 26 79 26 4 0 22 7 39 15 18 7 79 32 137 54 243 91 493 211
684 329 50 31 93 58 96 61 3 3 28 22 55 41 28 19 59 43 70 53 11 10 33 28 48
40 62 48 195 188 249 262 4 6 18 24 31 40 32 41 97 157 131 234 33 74 86 250
80 266 -3 6 -15 17 -28 25 -60 37 -205 175 -315 299 -31 35 -61 68 -66 75 -38
41 -187 231 -263 336 -51 69 -96 130 -102 137 -5 7 -10 16 -10 22 0 5 -4 11
-9 13 -11 4 -266 391 -331 503 -10 17 -41 71 -70 120 -60 103 -68 114 -73 94
-22 -80 -81 -245 -109 -309 -44 -100 -53 -118 -92 -180 -91 -146 -207 -249
-359 -321 -149 -69 -332 -87 -462 -45 -5 1 -23 6 -38 11 -123 34 -300 162
-402 291 -16 21 -36 43 -42 50 -7 7 -13 17 -13 23 0 6 -3 11 -7 11 -5 0 -13
10 -19 23 -6 12 -25 49 -42 82 -26 51 -68 165 -76 208 -2 6 -6 23 -9 37 -10
37 -18 80 -22 120 -3 19 -7 58 -11 85 -9 64 -9 265 -1 330 12 94 39 220 49
233 6 6 8 12 4 12 -3 0 3 24 15 53 78 203 181 336 337 438 73 48 200 103 262
114 18 3 37 8 40 10 4 3 29 7 56 10 27 3 60 8 74 10 14 3 78 6 143 6 l119 1
-29 31 c-43 47 -46 51 -84 97 -18 23 -39 47 -44 54 -6 6 -24 29 -40 51 -17 22
-34 45 -40 51 -5 6 -22 26 -37 45 -15 19 -74 95 -132 169 -59 74 -112 142
-119 150 -31 35 -293 364 -302 378 -5 9 -15 21 -22 27 -6 5 -35 39 -64 75 -29
36 -70 83 -90 105 -20 22 -52 59 -71 81 -35 44 -88 83 -88 65 0 -6 -6 -11 -14
-11 -8 0 -27 -5 -43 -12 -15 -6 -32 -10 -37 -9 -4 1 -13 -2 -20 -7 -9 -7 -68
-30 -96 -37 -3 -1 -18 -7 -33 -13 -16 -7 -30 -12 -31 -12 -2 0 -25 -10 -52
-22 -27 -12 -51 -23 -54 -23 -47 -12 -272 -128 -354 -183 -83 -56 -167 -136
-222 -212 -43 -61 -44 -64 -105 -176 -69 -129 -122 -219 -131 -222 -4 -2 -8
-12 -8 -22 0 -16 -18 -30 -40 -30 -5 0 -15 21 -23 48 -8 26 -33 99 -56 162
-23 63 -57 158 -75 210 -19 52 -46 126 -60 164 -14 38 -25 70 -23 72 1 2 36 6
77 9 132 10 222 20 281 30 16 3 44 7 62 10 117 20 233 65 372 145 144 83 252
133 442 204 39 15 92 41 117 57 l46 31 -45 57 c-25 31 -53 66 -63 77 -9 10
-33 39 -52 64 -19 25 -37 47 -40 50 -4 3 -46 55 -94 115 -48 61 -95 119 -104
130 -9 11 -35 42 -57 70 -22 27 -48 59 -57 70 -9 11 -42 52 -73 90 -31 39 -61
77 -68 85 -7 8 -34 42 -60 75 -27 33 -56 69 -65 80 -9 11 -34 43 -56 70 -22
28 -42 52 -45 55 -3 3 -40 45 -81 94 -41 49 -102 119 -136 155 l-61 65 -47
-49 c-40 -41 -90 -99 -131 -153 -5 -7 -17 -21 -26 -30 -52 -57 -139 -218 -164
-305 -20 -71 -23 -85 -29 -176 -4 -43 -14 -89 -24 -110 -20 -38 -85 -90 -113
-91 -20 0 -59 77 -64 129 -2 20 -4 36 -5 36 -1 0 -2 15 -3 33 -1 17 1 32 5 32
3 0 5 8 3 18 -5 31 79 239 106 262 3 3 16 24 29 48 13 23 27 42 32 42 4 0 8 5
8 11 0 8 219 291 290 376 19 22 22 124 5 150 -18 27 -38 29 -83 6z"/>
<path d="M5795 7561 c-22 -8 -46 -21 -53 -28 -7 -7 -17 -13 -21 -13 -13 0 -90
-75 -117 -115 -75 -110 -104 -229 -100 -405 2 -69 8 -135 13 -145 6 -11 13
-36 17 -55 16 -88 98 -240 152 -282 13 -11 31 -26 39 -34 8 -8 16 -14 17 -14
2 1 16 -3 31 -9 70 -27 150 -1 222 73 51 52 99 129 88 140 -4 3 -2 6 3 6 9 0
28 54 38 105 3 11 9 40 15 65 10 46 9 315 -3 360 -3 14 -8 35 -11 48 -3 12 -7
30 -9 40 -22 96 -107 226 -168 258 -41 21 -106 23 -153 5z"/>
<path d="M5307 7313 c-2 -5 -15 -39 -27 -78 -12 -38 -25 -74 -29 -80 -3 -5 -6
-14 -7 -20 -1 -5 -12 -46 -23 -90 -12 -44 -23 -89 -25 -100 -2 -11 -6 -38 -10
-60 -3 -23 -9 -52 -11 -65 -8 -41 -17 -170 -17 -240 0 -232 58 -445 166 -605
27 -39 122 -145 132 -145 2 0 28 -16 57 -35 55 -36 139 -70 204 -82 63 -12
226 -7 268 7 22 7 40 12 40 10 0 -5 126 62 142 75 7 5 32 26 56 45 24 19 64
61 88 93 24 31 49 63 56 70 35 41 108 210 134 311 28 109 34 160 34 296 0 129
-6 186 -30 280 -9 36 -17 72 -19 80 -28 113 -85 214 -170 304 l-29 31 8 -35
c11 -52 15 -358 5 -410 -4 -25 -11 -61 -14 -80 -14 -94 -78 -270 -97 -270 -5
0 -9 -7 -9 -15 0 -27 -125 -144 -182 -170 -90 -41 -208 -48 -283 -16 -82 35
-110 52 -163 102 -45 44 -132 167 -132 189 0 6 -9 27 -19 48 -10 20 -19 40
-19 45 0 4 -3 20 -6 35 -4 15 -9 37 -11 50 -3 12 -7 32 -10 45 -11 46 -5 337
8 387 1 3 -6 24 -15 47 -17 42 -33 60 -41 46z"/>
<path d="M8047 4508 c-9 -5 -17 -6 -17 -2 0 3 -6 2 -12 -3 -7 -5 -39 -18 -70
-28 -32 -11 -58 -22 -58 -25 0 -4 28 -19 63 -35 34 -15 100 -45 145 -66 90
-42 103 -45 133 -29 30 17 90 21 139 11 72 -15 80 -18 180 -59 52 -22 113 -48
135 -57 22 -9 54 -22 70 -30 17 -7 71 -30 120 -50 50 -20 104 -43 120 -50 37
-17 108 -48 115 -50 3 -1 19 -7 35 -14 67 -26 81 -31 105 -35 14 -3 25 -5 25
-6 0 -4 68 -11 127 -12 63 -2 68 -4 79 -29 10 -26 79 -97 79 -83 0 4 8 0 18
-8 18 -16 100 -58 114 -58 4 0 35 -13 68 -29 33 -16 60 -27 60 -25 0 3 12 -1
28 -9 33 -18 48 -24 187 -83 61 -25 123 -52 139 -60 16 -8 33 -14 37 -14 23 0
148 -68 172 -94 35 -38 34 -67 -3 -109 l-29 -34 72 -34 c40 -18 74 -34 77 -35
3 0 41 -17 84 -37 90 -42 81 -46 159 51 68 84 85 117 81 164 -4 55 -29 94 -92
143 -69 54 -134 86 -317 154 -77 29 -149 56 -160 61 -19 9 -131 51 -185 70
-14 5 -38 15 -55 21 -16 7 -32 13 -35 13 -8 2 -122 47 -157 62 -17 8 -41 26
-53 41 -19 24 -19 28 -5 50 15 22 14 24 -10 33 -14 5 -38 13 -53 16 -15 4 -31
10 -37 14 -5 5 -34 15 -62 23 -46 14 -56 14 -80 2 -34 -18 -104 -19 -158 -3
-22 6 -42 12 -45 13 -5 1 -193 72 -225 85 -11 4 -47 18 -80 30 -33 12 -69 25
-80 30 -47 18 -133 51 -145 55 -3 1 -16 6 -30 12 -14 6 -63 24 -110 41 -72 26
-109 38 -215 69 -11 3 -93 20 -140 29 -53 10 -231 12 -248 2z"/>
<path d="M7851 4298 c-32 -79 -124 -213 -203 -299 -79 -85 -77 -71 -17 -129
30 -29 135 -129 233 -223 99 -95 222 -213 273 -263 l94 -91 62 62 c128 128
197 203 197 214 0 6 7 11 15 11 8 0 15 4 15 8 0 5 8 18 18 30 9 11 28 35 42
53 14 17 37 46 53 64 15 18 27 36 27 40 0 6 53 77 90 122 18 22 11 28 -72 66
-94 42 -98 43 -98 22 0 -8 -4 -15 -10 -15 -5 0 -10 -4 -10 -10 0 -5 -8 -18
-17 -28 -10 -10 -25 -29 -33 -41 -21 -32 -119 -164 -129 -174 -8 -8 -100 44
-155 87 -18 14 -18 16 5 48 13 18 26 35 29 38 12 10 80 119 79 127 0 4 -35 25
-77 45 l-77 37 -22 -24 c-13 -13 -23 -27 -23 -31 0 -4 -19 -32 -42 -63 -22
-31 -42 -57 -43 -59 -4 -5 -65 33 -65 41 0 4 -7 7 -15 7 -8 0 -15 5 -15 10 0
6 -5 10 -12 10 -6 0 -20 7 -30 17 -15 14 -16 19 -5 32 23 28 114 177 121 199
6 17 -1 24 -41 43 -26 12 -54 23 -62 25 -7 1 -18 7 -24 13 -20 20 -42 11 -56
-21z"/>
<path d="M8770 3870 c-7 -16 -16 -30 -21 -30 -5 0 -9 -5 -9 -10 0 -6 -4 -16
-10 -23 -5 -7 -40 -52 -76 -102 -36 -49 -70 -93 -75 -96 -10 -6 8 -25 42 -44
10 -5 57 -35 105 -65 47 -30 98 -62 113 -71 14 -9 40 -25 57 -35 17 -10 44
-28 60 -38 16 -11 45 -29 64 -41 19 -12 93 -59 163 -104 71 -44 131 -81 133
-81 2 0 20 -11 40 -25 l37 -25 166 168 c231 235 212 207 155 232 -27 12 -67
30 -90 41 -23 10 -44 19 -47 19 -4 0 -26 -21 -49 -47 -123 -134 -122 -133
-150 -119 -29 15 -162 88 -165 90 -2 2 30 41 78 93 l29 33 -91 45 -91 46 -27
-32 c-14 -17 -37 -45 -51 -60 l-25 -29 -60 31 c-33 18 -72 40 -87 49 l-27 16
32 39 c48 59 86 118 81 127 -3 4 -12 8 -20 8 -8 0 -14 5 -14 12 0 6 -3 9 -6 5
-3 -3 -26 5 -50 18 -24 13 -57 26 -73 30 -25 5 -30 2 -41 -25z"/>
<path d="M7468 3822 c-18 -15 -34 -30 -36 -34 -2 -5 -8 -8 -13 -8 -6 0 -20
-10 -33 -22 -13 -13 -44 -38 -69 -55 l-47 -33 18 -32 c44 -79 122 -235 122
-245 0 -6 4 -13 9 -15 4 -1 11 -12 15 -23 5 -16 -4 -26 -46 -50 -28 -17 -68
-40 -87 -52 -20 -12 -48 -28 -62 -36 l-26 -14 -27 91 c-15 50 -28 96 -30 101
-1 6 -11 37 -21 70 -11 33 -19 65 -20 70 0 17 -19 24 -32 13 -16 -13 -79 -49
-160 -90 -63 -32 -63 -32 -64 -78 -1 -25 -1 -49 0 -53 1 -8 8 -389 12 -669 1
-106 5 -148 14 -148 11 0 167 55 245 87 19 7 43 16 54 20 10 3 38 16 62 28 24
12 40 17 37 11 -4 -6 2 -4 13 5 10 9 31 19 46 23 l26 6 -15 47 c-18 59 -64
214 -68 228 -1 6 -7 21 -12 35 -6 14 -8 28 -4 32 6 7 249 148 255 148 1 0 13
-24 27 -52 13 -29 26 -55 29 -58 3 -3 27 -49 54 -102 29 -57 54 -94 60 -91 28
16 247 172 296 211 30 24 65 51 77 60 30 23 29 32 -14 78 -35 37 -125 139
-170 190 -52 61 -124 142 -145 165 -12 14 -52 58 -88 99 -36 40 -72 81 -80 90
-8 8 -27 30 -42 48 l-27 32 -33 -28z"/>
<path d="M8478 3427 c-21 -6 -38 -14 -38 -19 0 -4 -5 -8 -11 -8 -14 0 -83 -53
-129 -100 -20 -19 -72 -66 -115 -105 -44 -38 -83 -74 -87 -79 -3 -5 6 -21 20
-36 15 -15 61 -64 102 -110 41 -46 93 -102 115 -126 22 -23 70 -75 106 -116
37 -40 86 -93 109 -118 23 -25 58 -64 78 -86 l36 -42 115 84 c64 45 123 89
131 96 8 7 36 30 63 51 75 59 152 144 176 193 51 100 25 170 -101 273 -69 57
-144 111 -153 111 -2 0 -23 13 -47 29 -67 44 -176 98 -218 107 -43 10 -119 10
-152 1z m74 -207 c4 -1 17 -4 28 -7 11 -3 20 -9 20 -13 0 -4 14 -13 30 -20 17
-7 30 -16 30 -21 0 -5 6 -9 14 -9 8 0 16 -4 18 -8 2 -4 23 -23 48 -42 72 -56
141 -123 155 -151 15 -27 16 -69 3 -69 -4 0 -8 -6 -8 -14 0 -8 -18 -29 -40
-46 -44 -35 -44 -35 -96 15 -20 20 -147 133 -188 168 -12 10 -56 51 -99 90
l-78 72 28 23 c41 35 84 51 108 42 11 -4 23 -9 27 -10z"/>
<path d="M6545 3286 c-53 -17 -157 -66 -173 -83 -7 -7 -18 -13 -24 -13 -24 0
-206 -213 -214 -250 0 -3 -8 -21 -16 -40 -18 -38 -17 -93 2 -115 7 -8 38 -27
70 -43 110 -56 126 -75 104 -137 -17 -51 -48 -77 -88 -73 -28 3 -31 6 -28 33
2 17 10 45 18 63 l13 33 -82 -7 c-45 -3 -103 -7 -128 -9 -25 -1 -51 -5 -57 -9
-18 -11 -64 -108 -69 -146 -3 -19 -7 -37 -9 -39 -2 -2 4 -16 13 -32 16 -27 51
-49 78 -49 31 0 14 -17 -18 -18 -77 -3 -157 -47 -235 -131 -51 -54 -152 -194
-152 -210 0 -6 -4 -11 -10 -11 -5 0 -10 -4 -10 -10 0 -5 -20 -40 -45 -78 -61
-95 -112 -200 -119 -244 -3 -21 -6 -41 -7 -45 -6 -39 53 -87 122 -100 47 -8
208 -9 249 -1 23 5 43 12 113 39 15 7 27 16 27 22 0 6 3 8 6 4 12 -12 97 79
125 135 16 32 29 61 29 65 0 7 -40 8 -222 4 -33 -1 -40 -6 -57 -38 -26 -52
-58 -76 -103 -79 -49 -3 -60 14 -41 70 14 41 166 348 183 370 59 73 91 94 117
78 21 -13 15 -79 -10 -111 -9 -11 8 -12 106 -9 64 3 119 7 121 9 6 6 18 89 18
125 0 51 -36 109 -81 130 l-40 19 82 1 c103 1 154 8 263 34 98 23 137 39 212
88 65 43 100 95 116 176 27 128 -16 179 -184 222 -160 42 -180 63 -141 151 29
63 98 98 85 43 -2 -11 -6 -29 -9 -41 -2 -11 -7 -30 -11 -41 -5 -17 -3 -18 13
-10 10 6 20 10 23 10 3 0 25 5 50 12 25 7 46 12 47 12 1 0 42 15 90 32 l88 31
-2 44 c-2 74 -12 108 -41 140 -32 36 -94 47 -157 27z"/>
<path d="M6142 3214 c-76 -22 -131 -49 -184 -92 -56 -44 -228 -228 -228 -243
0 -4 -4 -9 -8 -11 -19 -8 -285 -389 -321 -460 -7 -16 -17 -28 -22 -28 -5 0 -9
-6 -9 -13 0 -8 -9 -22 -20 -32 -11 -10 -20 -22 -20 -27 0 -5 -18 -33 -40 -63
-22 -30 -40 -58 -40 -63 0 -4 -8 -17 -17 -28 -10 -11 -22 -28 -28 -37 -42 -70
-135 -198 -164 -225 -42 -38 -86 -62 -115 -62 -14 0 -30 -14 -46 -40 -14 -22
-28 -40 -32 -40 -5 0 -8 -7 -8 -15 0 -8 -4 -15 -10 -15 -5 0 -10 -4 -10 -10 0
-5 -16 -32 -35 -59 -40 -56 -43 -67 -15 -76 27 -9 26 -46 -4 -105 -25 -50
-157 -253 -183 -282 -9 -10 -12 -18 -7 -18 5 0 4 -4 -2 -8 -9 -6 -91 -123
-119 -170 -5 -9 -26 -39 -46 -67 -20 -27 -38 -54 -40 -60 -2 -5 -38 -62 -80
-125 -227 -343 -242 -529 -49 -600 19 -7 49 -18 65 -25 64 -28 64 -27 132 85
34 58 67 112 73 120 6 8 15 26 21 40 5 13 13 27 17 30 14 10 33 51 27 59 -2 5
-20 12 -40 15 -29 6 -36 12 -44 42 -5 19 -7 45 -5 57 3 12 6 27 7 32 6 27 94
177 229 388 15 23 34 57 44 75 9 17 20 32 24 32 4 0 11 11 14 25 4 14 11 25
16 25 6 0 10 5 10 10 0 6 12 29 27 53 15 23 32 50 38 59 5 9 30 49 54 89 55
91 102 179 94 179 -3 0 0 7 7 15 7 8 14 43 16 77 3 55 8 66 31 83 98 72 183
175 303 371 69 112 99 159 110 171 5 7 10 16 10 21 0 4 7 17 15 27 25 31 83
127 100 163 8 17 20 32 25 32 6 0 10 6 10 13 0 7 16 36 35 64 19 29 35 56 35
62 0 5 7 11 15 15 8 3 14 9 13 13 -3 10 50 86 89 128 44 48 95 82 134 89 32 6
41 15 100 114 35 59 66 111 68 117 2 5 11 21 21 35 38 57 61 100 53 99 -4 0
-45 -11 -91 -25z"/>
<path d="M9529 3110 c-101 -103 -106 -110 -93 -132 7 -13 18 -35 25 -50 6 -16
15 -28 20 -28 5 0 9 -4 9 -9 0 -4 22 -46 49 -92 53 -93 147 -285 187 -382 14
-34 29 -71 34 -82 5 -11 19 -45 30 -75 31 -79 43 -101 50 -98 4 2 42 44 85 93
43 50 92 106 109 125 17 19 43 49 58 68 31 38 29 46 -29 116 -18 21 -16 41 3
57 9 7 50 57 92 111 41 54 78 98 81 98 3 0 33 -7 66 -15 l60 -14 28 29 c15 16
27 32 27 35 0 3 5 11 11 18 5 7 35 46 65 87 30 41 61 83 69 93 8 9 15 19 15
21 0 5 -73 15 -170 22 -103 7 -155 12 -155 14 0 1 -16 3 -35 5 -77 6 -156 15
-176 19 -39 8 -99 18 -124 21 -14 1 -65 11 -115 20 -49 9 -101 19 -115 21 -14
3 -32 7 -40 9 -9 3 -56 -37 -121 -105z m294 -169 c15 -6 27 -8 27 -5 0 3 6 2
13 -3 6 -4 14 -8 17 -9 3 0 12 -4 20 -7 20 -8 132 -38 148 -39 26 -2 10 -30
-71 -122 -27 -30 -28 -31 -42 -11 -18 23 -19 25 -107 132 -66 80 -67 88 -5 64z"/>
<path d="M8175 2734 c-33 -7 -78 -16 -100 -19 -22 -4 -58 -10 -81 -15 -22 -5
-58 -12 -80 -14 -21 -3 -75 -10 -119 -16 -44 -6 -107 -13 -140 -16 -33 -3 -63
-7 -66 -10 -3 -2 8 -33 25 -69 l31 -66 55 5 c30 2 62 7 70 10 8 2 35 8 60 11
66 10 78 12 158 29 40 9 75 16 78 16 11 0 1 -18 -29 -51 -17 -20 -47 -53 -65
-75 -18 -21 -71 -78 -118 -126 l-85 -87 17 -38 c9 -21 16 -41 16 -45 -1 -5 3
-8 9 -8 5 0 8 -3 5 -8 -2 -4 1 -15 8 -24 12 -16 21 -9 87 60 139 146 269 300
269 317 0 4 6 12 13 19 6 8 18 22 25 32 7 11 28 41 47 68 19 27 35 54 35 60 0
11 -54 77 -61 75 -2 -1 -31 -7 -64 -15z"/>
<path d="M7390 2667 c-14 -6 -27 -14 -30 -17 -3 -3 -10 -6 -16 -7 -35 -7 -123
-55 -128 -70 -4 -18 -18 -98 -17 -108 0 -2 -5 -19 -10 -37 -5 -18 -12 -48 -15
-67 -11 -66 -92 -343 -121 -411 -3 -8 -7 -18 -8 -22 -2 -5 -4 -10 -5 -13 -1
-3 -3 -8 -5 -12 -1 -5 -6 -19 -12 -33 -44 -105 -60 -149 -55 -154 3 -3 1 -6
-5 -6 -6 0 -13 -9 -16 -19 -5 -19 -3 -19 62 0 98 29 105 31 119 31 6 1 12 6
12 11 0 6 3 8 6 5 3 -4 25 0 49 9 36 12 45 20 51 46 10 39 9 39 17 57 8 23 29
90 31 103 1 7 5 18 9 25 5 7 10 24 13 38 3 14 12 51 20 82 8 32 17 66 19 77 2
11 6 31 10 45 4 14 7 32 7 40 0 8 4 34 9 56 5 23 11 66 14 95 3 30 7 65 10 79
6 31 17 190 13 189 -2 0 -14 -6 -28 -12z"/>
<path d="M9065 2618 c-42 -9 -166 -58 -175 -69 -3 -3 -25 -16 -49 -29 -25 -12
-50 -27 -57 -34 -7 -6 -29 -22 -49 -36 -114 -79 -230 -187 -270 -250 -50 -80
-70 -187 -51 -270 3 -14 9 -40 12 -59 4 -19 13 -46 20 -60 8 -14 14 -31 14
-37 0 -20 70 -166 117 -244 67 -112 147 -164 240 -154 54 6 66 9 81 17 6 5 12
6 12 3 0 -15 210 97 218 116 2 4 8 8 13 8 10 0 62 35 89 60 9 8 28 24 44 35
15 11 38 29 50 40 13 11 36 32 52 46 28 24 113 117 161 174 13 14 41 64 64
110 64 130 64 225 -2 312 l-16 22 -32 -23 c-17 -13 -47 -39 -65 -57 -18 -19
-68 -65 -112 -104 -43 -38 -93 -84 -111 -101 l-32 -30 21 -43 c29 -59 15 -106
-52 -163 -52 -45 -115 -74 -125 -57 -4 5 -10 7 -14 5 -12 -8 -85 73 -129 144
-23 36 -46 70 -52 77 -5 7 -10 16 -10 22 0 5 -3 11 -7 13 -15 6 -83 153 -85
183 -4 65 75 145 144 145 26 0 88 -35 88 -49 0 -20 29 -18 56 6 16 14 62 53
102 87 40 33 94 80 120 103 26 24 50 43 55 43 18 0 4 31 -22 50 -65 45 -171
66 -256 48z"/>
<path d="M6725 2305 c-16 -13 -35 -24 -42 -25 -6 0 -13 -4 -15 -9 -5 -13 -219
-151 -313 -201 -146 -79 -158 -87 -161 -102 -1 -9 -5 -30 -9 -47 -6 -30 -5
-32 42 -52 26 -11 57 -24 68 -29 41 -18 165 -59 165 -55 0 2 11 0 25 -5 14 -5
36 -12 48 -14 43 -9 132 -26 167 -31 19 -3 43 -8 53 -11 15 -5 17 3 17 75 0
88 3 85 -80 96 -25 4 -67 11 -95 16 -27 6 -61 12 -75 15 -21 4 -48 10 -82 19
-5 2 -17 3 -29 4 -28 1 -19 12 38 41 26 14 50 27 53 30 3 3 16 11 30 18 14 6
50 27 80 45 30 17 79 46 107 62 l53 30 0 78 c0 42 -3 77 -7 77 -5 0 -21 -11
-38 -25z"/>
<path d="M8123 2052 c-96 -50 -141 -72 -151 -72 -7 0 -12 -3 -12 -8 0 -4 -15
-13 -32 -20 -51 -21 -83 -41 -81 -50 1 -5 5 -20 7 -33 3 -13 15 -60 27 -104
11 -44 25 -98 30 -120 6 -22 22 -80 36 -130 13 -49 27 -98 29 -107 5 -23 13
-53 19 -75 21 -78 26 -102 31 -126 3 -16 12 -46 19 -68 8 -21 12 -39 10 -39
-2 0 2 -18 10 -41 8 -23 12 -45 9 -50 -3 -5 -1 -9 4 -9 5 0 9 -6 10 -12 1 -24
13 -72 20 -85 6 -10 30 -1 102 36 224 118 302 160 318 175 10 10 4 35 -33 132
-26 65 -52 133 -59 149 -17 40 -41 99 -42 105 0 3 -6 18 -12 33 -7 16 -12 31
-12 34 0 3 -7 19 -15 36 -8 18 -39 97 -70 177 -84 217 -113 284 -122 287 -4 1
-23 -6 -40 -15z"/>
<path d="M7420 1719 c-19 -4 -48 -10 -65 -12 -16 -3 -73 -17 -125 -32 -52 -14
-135 -37 -185 -50 -49 -13 -97 -25 -105 -28 -8 -3 -27 -8 -41 -11 -22 -5 -25
-11 -26 -48 0 -45 -11 -356 -19 -563 -2 -66 -6 -199 -9 -296 -2 -96 -5 -179
-6 -185 -4 -21 2 -33 14 -29 6 2 23 6 37 9 14 2 66 14 115 26 50 12 99 23 110
26 11 2 43 10 70 17 48 13 50 15 49 48 -1 19 -4 87 -7 152 -2 65 -7 120 -10
123 -3 3 -2 16 3 29 5 13 5 26 0 31 -18 18 1 52 33 59 18 4 34 9 37 10 3 1 12
4 20 8 17 7 39 10 56 8 6 0 27 -16 47 -34 28 -25 40 -48 56 -107 12 -41 21
-85 21 -97 0 -42 22 -123 33 -123 20 0 262 94 269 104 4 6 8 8 8 4 0 -4 24 3
54 16 30 13 56 22 59 20 2 -3 10 2 16 10 10 11 8 23 -8 53 -10 22 -22 56 -26
76 -4 21 -11 40 -16 43 -5 3 -7 9 -5 13 3 4 -12 40 -32 81 -39 79 -88 127
-138 136 -40 7 -42 13 -13 38 44 38 74 113 73 186 -2 140 -44 229 -127 272
-45 22 -152 31 -217 17z m-51 -263 c39 -41 47 -180 14 -225 -20 -26 -105 -74
-153 -86 -25 -6 -25 -4 -25 42 0 26 -2 65 -6 86 -3 20 -2 37 3 37 5 0 5 8 1
18 -5 9 -9 44 -8 76 l0 60 44 11 c60 14 105 8 130 -19z"/>
<path d="M6739 1556 c-5 -4 -167 -32 -244 -41 -27 -4 -63 -9 -80 -12 -16 -3
-41 -6 -55 -8 -115 -13 -137 -16 -151 -21 -15 -4 -34 -66 -44 -141 -2 -15 -4
-28 -5 -28 -1 0 -3 -11 -6 -25 -2 -14 -13 -68 -24 -120 -11 -52 -22 -106 -24
-120 -3 -14 -8 -38 -11 -55 -3 -16 -8 -37 -10 -45 -2 -8 -7 -28 -10 -45 -2
-16 -7 -41 -10 -55 -3 -14 -8 -38 -11 -55 -3 -16 -10 -50 -15 -75 -6 -25 -12
-56 -14 -70 -2 -14 -14 -70 -25 -125 -12 -55 -23 -107 -23 -115 -2 -13 21 -15
148 -15 83 -1 156 2 164 6 8 4 15 15 16 25 1 11 5 39 9 64 3 25 9 63 12 85 3
22 7 51 9 65 2 14 7 48 10 75 4 28 9 64 12 80 3 17 6 37 7 45 2 9 16 16 37 17
47 3 130 13 154 17 11 3 27 5 36 5 23 1 28 18 35 119 3 48 9 91 11 96 4 5 -15
5 -43 1 -27 -4 -67 -9 -89 -11 -21 -3 -50 -6 -63 -9 -46 -8 -50 0 -37 70 6 36
11 78 11 95 -1 16 2 30 7 30 4 0 6 5 5 12 -3 12 36 23 117 33 28 3 73 10 100
15 28 6 60 11 72 13 12 2 25 6 28 9 4 3 9 47 11 98 2 50 5 96 7 102 2 11 -16
22 -24 14z"/>
<path d="M5238 1507 c-12 -4 -42 -10 -67 -12 -28 -3 -51 -11 -61 -23 -8 -11
-22 -22 -31 -25 -10 -3 -22 -22 -29 -41 -6 -20 -15 -36 -20 -36 -4 0 -24 -16
-43 -35 -19 -19 -40 -35 -46 -35 -7 0 -41 -86 -41 -105 0 -1 19 1 43 5 23 5
44 6 46 4 6 -6 2 -7 -49 -25 -39 -14 -45 -20 -52 -54 -5 -21 -13 -43 -18 -50
-13 -15 -8 -35 18 -76 12 -20 22 -43 22 -52 0 -21 27 -47 43 -42 7 3 33 7 58
8 25 2 51 7 58 11 6 4 11 3 11 -3 0 -6 -17 -13 -37 -16 -66 -11 -71 -14 -66
-35 3 -11 10 -21 17 -21 22 -3 51 0 76 6 14 3 43 7 65 9 22 1 47 6 56 10 11 5
23 0 36 -13 16 -18 41 -27 77 -30 9 -1 3 -55 -10 -99 l-7 -23 89 5 c139 9 478
17 473 12 -5 -5 -317 -113 -349 -121 -8 -2 -46 -15 -85 -28 -69 -24 -70 -24
-77 -67 -4 -24 -17 -54 -29 -67 -13 -12 -19 -23 -15 -23 5 0 3 -7 -4 -14 -12
-16 -11 -63 3 -82 4 -7 10 -47 13 -90 6 -107 17 -126 66 -120 46 6 50 -7 7
-20 -17 -5 -31 -13 -31 -19 0 -5 -4 -17 -9 -26 -13 -26 24 -55 54 -42 12 6 31
9 42 7 38 -6 80 16 138 72 31 30 57 58 58 62 3 29 9 47 17 50 27 9 43 31 46
67 2 22 5 43 5 48 1 4 6 7 11 7 12 0 17 4 78 56 30 26 41 42 36 53 -3 9 -7 32
-8 51 l-1 35 -70 -2 -70 -2 54 19 c66 24 81 36 81 64 0 28 73 105 127 135 27
15 50 41 71 78 18 30 32 58 32 63 0 8 -57 19 -65 12 -2 -2 -107 -6 -232 -8
-213 -3 -236 0 -148 21 11 2 61 14 110 25 50 12 99 23 110 25 58 12 105 31
105 41 0 6 -7 17 -15 24 -21 17 -55 97 -58 135 -4 50 -10 53 -74 42 -32 -5
-69 -11 -83 -12 -14 -2 -25 -4 -25 -5 0 -1 -11 -3 -25 -5 -14 -2 -38 -6 -55
-9 -79 -16 -142 -27 -230 -41 -11 -2 -35 -6 -52 -9 -44 -8 -79 -13 -133 -21
-24 -4 -48 -9 -52 -11 -5 -3 -8 -1 -8 4 0 12 7 14 255 98 110 37 208 71 218
76 10 5 28 11 40 14 28 5 128 45 144 56 23 18 -1 52 -38 54 -50 3 -92 12 -98
22 -10 14 -47 20 -65 10 -9 -5 -16 -18 -16 -28 0 -17 -4 -18 -30 -9 -19 7 -30
18 -30 29 0 13 -6 18 -20 15 -11 -2 -20 0 -20 5 0 8 -53 7 -140 -4 -25 -3 -38
-3 -30 1 113 44 135 57 135 79 0 17 -8 19 -78 19 -43 0 -88 -4 -99 -8z"/>
</g>
</svg>
