<?xml version="1.0" standalone="no"?>
<!DOCTYPE svg PUBLIC "-//W3C//DTD SVG 20010904//EN"
 "http://www.w3.org/TR/2001/REC-SVG-20010904/DTD/svg10.dtd">
<svg version="1.0" xmlns="http://www.w3.org/2000/svg"
 width="180.000000pt" height="180.000000pt" viewBox="0 0 180.000000 180.000000"
 preserveAspectRatio="xMidYMid meet">
<metadata>
Created by potrace 1.14, written by Peter Selinger 2001-2017
</metadata>
<g transform="translate(0.000000,180.000000) scale(0.100000,-0.100000)"
fill="#000000" stroke="none">
<path d="M0 900 l0 -900 900 0 900 0 0 900 0 900 -900 0 -900 0 0 -900z m681
370 c28 -10 69 -31 90 -46 41 -28 109 -119 109 -145 0 -10 -17 -23 -43 -33
-51 -19 -67 -20 -67 -3 0 6 -16 33 -34 58 -96 130 -304 124 -402 -11 -43 -60
-59 -118 -58 -213 4 -180 122 -299 283 -284 108 9 194 77 215 170 l6 27 -135
0 -135 0 0 50 0 50 185 0 185 0 0 -190 0 -190 -49 0 -50 0 6 38 c3 20 12 54
20 76 17 51 17 56 -7 56 -12 0 -31 -18 -53 -52 -42 -66 -60 -82 -121 -109 -66
-29 -170 -29 -248 1 -232 87 -292 465 -105 658 81 83 147 110 274 111 59 1 97
-5 134 -19z m939 -40 l0 -50 -220 0 -220 0 0 -125 0 -125 175 0 175 0 0 -45 0
-45 -175 0 -175 0 0 -165 0 -165 -55 0 -55 0 0 385 0 385 275 0 275 0 0 -50z"/>
</g>
</svg>
