<?xml version="1.0" standalone="no"?>
<!DOCTYPE svg PUBLIC "-//W3C//DTD SVG 20010904//EN"
 "http://www.w3.org/TR/2001/REC-SVG-20010904/DTD/svg10.dtd">
<svg version="1.0" xmlns="http://www.w3.org/2000/svg"
 width="512.000000pt" height="512.000000pt" viewBox="0 0 512.000000 512.000000"
 preserveAspectRatio="xMidYMid meet">

<g transform="translate(0.000000,512.000000) scale(0.100000,-0.100000)"
fill="#EF5455" stroke="none">
<path d="M63 5100 c-58 -35 -63 -57 -63 -280 0 -223 5 -245 63 -280 23 -14 50
-20 94 -20 l63 0 2 -1396 3 -1396 28 -24 c35 -30 59 -30 94 0 l28 24 3 1396 2
1396 63 0 c109 0 157 49 157 159 l0 60 591 3 591 3 19 24 c23 28 24 69 3 99
l-15 22 -595 0 -594 0 0 68 c0 49 -5 76 -20 99 -35 58 -57 63 -282 63 -184 0
-206 -2 -235 -20z m387 -280 l0 -150 -150 0 -150 0 0 150 0 150 150 0 150 0 0
-150z"/>
<path d="M4583 5100 c-46 -27 -63 -68 -63 -145 l0 -65 -1228 0 c-1219 0 -1229
0 -1247 -20 -25 -28 -23 -76 4 -103 l22 -22 1224 -3 1225 -2 0 -61 c0 -110 48
-159 157 -159 l63 0 2 -980 3 -979 22 -22 c29 -29 77 -29 106 0 l22 22 3 979
2 980 63 0 c44 0 71 6 94 20 58 35 63 57 63 282 0 301 3 298 -302 298 -184 0
-206 -2 -235 -20z m387 -280 l0 -150 -150 0 -150 0 0 150 0 150 150 0 150 0 0
-150z"/>
<path d="M844 4269 c-18 -20 -19 -43 -19 -500 l0 -478 23 -23 23 -23 479 0
479 0 23 23 23 23 0 478 c0 457 -1 480 -19 500 -19 21 -24 21 -506 21 -482 0
-487 0 -506 -21z m876 -504 l0 -375 -370 0 -370 0 0 375 0 375 370 0 370 0 0
-375z"/>
<path d="M1147 3972 c-24 -27 -22 -85 4 -108 19 -17 38 -19 199 -19 161 0 180
2 199 19 27 25 29 86 3 109 -16 15 -45 17 -204 17 -166 0 -187 -2 -201 -18z"/>
<path d="M1147 3672 c-24 -27 -22 -85 4 -108 19 -17 38 -19 199 -19 161 0 180
2 199 19 27 25 29 86 3 109 -16 15 -45 17 -204 17 -166 0 -187 -2 -201 -18z"/>
<path d="M2044 4269 c-18 -20 -19 -43 -19 -500 l0 -478 23 -23 c22 -23 25 -23
288 -23 l266 0 24 28 c29 34 30 56 3 91 l-20 26 -215 0 -214 0 0 375 0 375
980 0 980 0 0 -375 0 -375 -625 0 c-612 0 -625 0 -645 -20 -43 -43 -14 -113
52 -125 18 -3 324 -5 680 -3 l647 3 23 23 23 23 0 478 c0 457 -1 480 -19 500
l-19 21 -1097 0 -1097 0 -19 -21z"/>
<path d="M844 3069 c-18 -20 -19 -43 -19 -500 l0 -478 23 -23 23 -23 1689 0
1689 0 23 23 23 23 0 478 c0 457 -1 480 -19 500 l-19 21 -1697 0 -1697 0 -19
-21z m3296 -504 l0 -375 -1580 0 -1580 0 0 375 0 375 1580 0 1580 0 0 -375z"/>
<path d="M1147 2772 c-24 -27 -22 -85 4 -108 20 -18 60 -19 1378 -22 746 -1
1371 0 1389 3 65 12 93 78 52 123 l-21 22 -1393 0 c-1337 0 -1394 -1 -1409
-18z"/>
<path d="M1147 2472 c-24 -27 -22 -85 4 -108 20 -18 60 -19 1378 -22 746 -1
1371 0 1389 3 65 12 93 78 52 123 l-21 22 -1393 0 c-1337 0 -1394 -1 -1409
-18z"/>
<path d="M4764 2289 c-18 -20 -19 -51 -22 -855 l-3 -834 -60 0 c-112 0 -159
-48 -159 -162 l0 -68 -1960 0 -1960 0 0 65 c0 117 -46 165 -157 165 l-63 0 -1
398 c0 280 -4 407 -12 432 -23 67 -111 67 -134 0 -8 -25 -12 -152 -12 -432
l-1 -398 -62 0 c-45 0 -72 -6 -95 -20 -58 -35 -63 -57 -63 -280 0 -223 5 -245
63 -280 29 -18 51 -20 237 -20 186 0 208 2 237 20 44 27 63 68 63 140 l0 60
1960 0 1960 0 0 -60 c0 -72 19 -113 63 -140 29 -18 51 -20 237 -20 304 0 300
-4 300 302 0 184 -2 206 -20 235 -27 44 -68 63 -139 63 l-60 0 -3 834 c-3 804
-4 835 -22 855 -13 14 -31 21 -56 21 -25 0 -43 -7 -56 -21z m-4314 -1989 l0
-150 -150 0 -150 0 0 150 0 150 150 0 150 0 0 -150z m4520 0 l0 -150 -150 0
-150 0 0 150 0 150 150 0 150 0 0 -150z"/>
<path d="M844 1869 c-18 -20 -19 -43 -19 -500 l0 -478 23 -23 23 -23 479 0
479 0 23 23 23 23 0 478 c0 457 -1 480 -19 500 -19 21 -24 21 -506 21 -482 0
-487 0 -506 -21z m876 -504 l0 -375 -370 0 -370 0 0 375 0 375 370 0 370 0 0
-375z"/>
<path d="M2054 1869 c-18 -20 -19 -43 -19 -500 l0 -478 23 -23 23 -23 479 0
479 0 23 23 23 23 0 478 c0 457 -1 480 -19 500 -19 21 -24 21 -506 21 -482 0
-487 0 -506 -21z m876 -504 l0 -375 -370 0 -370 0 0 375 0 375 370 0 370 0 0
-375z"/>
<path d="M2357 1572 c-24 -27 -22 -85 4 -108 19 -17 38 -19 199 -19 161 0 180
2 199 19 27 25 29 86 3 109 -16 15 -45 17 -204 17 -166 0 -187 -2 -201 -18z"/>
<path d="M2357 1272 c-24 -27 -22 -85 4 -108 19 -17 38 -19 199 -19 161 0 180
2 199 19 27 25 29 86 3 109 -16 15 -45 17 -204 17 -166 0 -187 -2 -201 -18z"/>
<path d="M3264 1869 c-18 -20 -19 -43 -19 -500 l0 -478 23 -23 23 -23 479 0
479 0 23 23 23 23 0 478 c0 457 -1 480 -19 500 -19 21 -24 21 -506 21 -482 0
-487 0 -506 -21z m876 -504 l0 -375 -370 0 -370 0 0 375 0 375 370 0 370 0 0
-375z"/>
</g>
</svg>
