<svg id="Layer_1" data-name="Layer 1" xmlns="http://www.w3.org/2000/svg" viewBox="0 0 864 174.2834">
  <g>
    <path id="fullLogo" d="M41.3583,37.7471a82.2411,82.2411,0,0,1,5.5085-16.0746A38.4067,38.4067,0,0,1,55.3551,9.8433,35.1191,35.1191,0,0,1,67.5459,2.5292,49.8276,49.8276,0,0,1,84.3422,0a48.0421,48.0421,0,0,1,9.9333.9939,32.1884,32.1884,0,0,1,7.5853,2.4383L95.1785,16.7968a25.8417,25.8417,0,0,0-4.4247-1.5354,30.8239,30.8239,0,0,0-7.8565-.813,26.517,26.517,0,0,0-10.1136,1.7161A20.0283,20.0283,0,0,0,65.74,20.95a23.0213,23.0213,0,0,0-4.6055,7.405,68.9321,68.9321,0,0,0-2.98,9.7524l-1.9869,8.1272H87.5932l-3.251,14.0877H52.9172l-14.4483,59.6q-2.1675,9.2106-3.7929,16.4343a116.3173,116.3173,0,0,1-3.8828,13.5454,61.98,61.98,0,0,1-5.96,12.1908A71.8538,71.8538,0,0,1,14.81,174.2834L0,172.1166q5.4182-7.0437,8.4883-11.92a65.2145,65.2145,0,0,0,5.1474-9.9333,76.8075,76.8075,0,0,0,3.6121-11.6493q1.5318-6.59,4.0636-17.0666ZM109.8076,98.791q-.906,3.975-1.806,7.7657a31.1111,31.1111,0,0,0-.903,7.2242q0,6.1429,2.98,9.7533,2.98,3.6138,11.107,4.5151l-3.7925,13.7253a36.0227,36.0227,0,0,1-12.5519-2.2576,22.4942,22.4942,0,0,1-8.308-5.5081,20.8336,20.8336,0,0,1-4.6055-8.1272,34.8014,34.8014,0,0,1-1.4449-10.2948,54.77,54.77,0,0,1,.7227-8.6687q.72-4.512,1.9864-9.3918L115.948,2.89,133.4666,0Z" style="fill: #2a3252"/>
    <path id="fullLogo-2" data-name="fullLogo" d="M172.2974,142.4977a43.5364,43.5364,0,0,1-15.8928-2.6191,31.5,31.5,0,0,1-11.1978-7.2242,28.8833,28.8833,0,0,1-6.6823-10.7463,38.7619,38.7619,0,0,1-2.1672-13.003A78.8245,78.8245,0,0,1,140.15,84.5235a66.87,66.87,0,0,1,10.8363-20.77,52.6335,52.6335,0,0,1,17.1574-14.3584,48.48,48.48,0,0,1,22.9367-5.3273,38.076,38.076,0,0,1,12.7327,1.896,23.569,23.569,0,0,1,8.6686,5.1474,20.6934,20.6934,0,0,1,4.9667,7.4949,24.303,24.303,0,0,1,1.6257,8.76,30.68,30.68,0,0,1-3.07,14.3576,30.1062,30.1062,0,0,1-8.1272,9.8433,37.368,37.368,0,0,1-11.83,6.14,104.1947,104.1947,0,0,1-14.0872,3.4313,133.5682,133.5682,0,0,1-14.81,1.7161q-7.497.4524-14.1777.8131a19.6047,19.6047,0,0,0-.18,2.3475V107.46a30.1419,30.1419,0,0,0,.993,7.8565,14.6588,14.6588,0,0,0,3.7025,6.5019,18.479,18.479,0,0,0,7.4953,4.4252,39.9476,39.9476,0,0,0,12.5519,1.6252,42.2211,42.2211,0,0,0,7.1338-.6323,60.1662,60.1662,0,0,0,7.0434-1.6252q3.34-.9908,5.96-1.9868a13.5987,13.5987,0,0,0,3.7024-1.896l1.445,14.2675A59.2936,59.2936,0,0,1,191.171,140.24,70.2649,70.2649,0,0,1,172.2974,142.4977ZM155.14,90.8446q10.4726-.36,19.1443-1.3545a61.1406,61.1406,0,0,0,14.99-3.4313,23.81,23.81,0,0,0,9.8429-6.5928q3.5219-4.1523,3.5217-10.8363a10.4316,10.4316,0,0,0-.6319-3.4313,8.9373,8.9373,0,0,0-2.1676-3.3413,11.5646,11.5646,0,0,0-4.2439-2.5283,19.5988,19.5988,0,0,0-6.6823-.993,26.4347,26.4347,0,0,0-11.83,2.7091,35.7981,35.7981,0,0,0-9.8428,7.1333,43.2829,43.2829,0,0,0-7.405,10.2948A55.72,55.72,0,0,0,155.14,90.8446Z" style="fill: #2a3252"/>
    <path id="fullLogo-3" data-name="fullLogo" d="M268.92,80.0083q7.5849-9.21,13.9969-17.7,6.4083-8.487,11.107-16.0737h18.2412q-7.7673,11.3787-17.0675,23.0271-9.3037,11.65-19.0534,23.0271,5.778,11.3785,11.5585,23.5694a235.2132,235.2132,0,0,1,9.9333,24.2908H280.1169a185.1521,185.1521,0,0,0-6.9534-17.5181q-4.2455-9.3891-8.398-18.0605l-31.2446,35.5786H214.0155l43.3451-48.4017L234.0628,46.2349h18.6023Z" style="fill: #2a3252"/>
    <path id="fullLogo-4" data-name="fullLogo" d="M347.6611,50.0278a46.9583,46.9583,0,0,1,9.5721-4.3343,36.3729,36.3729,0,0,1,11.559-1.8061,34.2574,34.2574,0,0,1,13.6353,2.5283,26.1209,26.1209,0,0,1,9.6625,6.9535,29.3162,29.3162,0,0,1,5.6888,10.5655,44.4461,44.4461,0,0,1,1.8965,13.1838,74.2322,74.2322,0,0,1-3.9732,24.1109,58.9586,58.9586,0,0,1-32.4185,35.3986q-12.1908,5.5068-28.6259,5.5081-2.7091,0-5.96-.2707a51.7006,51.7006,0,0,1-6.5919-.9939,57.2881,57.2881,0,0,1-6.5019-1.806,27.3309,27.3309,0,0,1-5.5081-2.5283L342.0626,2.89,359.5812,0Zm16.9771,8.1272a31.85,31.85,0,0,0-10.7459,1.896,39.231,39.231,0,0,0-10.0236,5.3282L329.24,126.604q1.8036.3638,4.154.7222a30.4876,30.4876,0,0,0,4.6959.3616,41.7767,41.7767,0,0,0,18.6019-4.0636,43.3084,43.3084,0,0,0,14.0873-10.8363,49.6588,49.6588,0,0,0,8.94-15.5322,53.6239,53.6239,0,0,0,3.1606-18.3312,36.9606,36.9606,0,0,0-.8127-7.7656,17.6653,17.6653,0,0,0-2.8894-6.6827,14.6646,14.6646,0,0,0-5.5989-4.6051A20.4128,20.4128,0,0,0,364.6382,58.155Z" style="fill: #2a3252"/>
    <path id="fullLogo-5" data-name="fullLogo" d="M473.7223,141.2331q-.9062-1.9856-1.8061-4.4252a33.7654,33.7654,0,0,1-1.4453-5.1465,54.296,54.296,0,0,1-10.6555,7.2242q-6.6841,3.61-16.4352,3.6121a33.4189,33.4189,0,0,1-13.6353-2.5292,24.2892,24.2892,0,0,1-9.301-7.0434,29.5007,29.5007,0,0,1-5.3282-10.6555A50.16,50.16,0,0,1,413.4,108.7243a70.8677,70.8677,0,0,1,4.0631-23.6594,60.46,60.46,0,0,1,12.1909-20.5887A61.131,61.131,0,0,1,450.0629,49.847q12.2794-5.5953,28.7159-5.5989a70.3831,70.3831,0,0,1,11.3778,1.0838,36.0539,36.0539,0,0,1,11.1978,3.6121l-13.9069,56.71q-.9048,4.1574-1.5344,7.9473a48.0955,48.0955,0,0,0-.6323,7.9464,49.8594,49.8594,0,0,0,.7222,8.3979,50.9169,50.9169,0,0,0,2.5283,9.12Zm-26.9108-13.0039a24.8142,24.8142,0,0,0,13.0039-3.25,41.8562,41.8562,0,0,0,9.3918-7.5858q.1772-3.0688.6314-6.4111.45-3.34,1.1746-6.7726L481.85,59.42a11.6117,11.6117,0,0,0-2.9807-.5423c-1.3854-.1182-2.6182-.1808-3.7021-.1808A42.5846,42.5846,0,0,0,456.5648,62.67a44.375,44.375,0,0,0-14.1776,10.5656,46.5684,46.5684,0,0,0-9.03,15.3514,53.5711,53.5711,0,0,0-3.1606,18.3311,41.8261,41.8261,0,0,0,.7222,7.6757,19.115,19.115,0,0,0,2.6192,6.8626,15.0826,15.0826,0,0,0,5.0565,4.8767A15.8023,15.8023,0,0,0,446.8115,128.2292Z" style="fill: #2a3252"/>
    <path id="fullLogo-6" data-name="fullLogo" d="M531.1533,128.41a41.8554,41.8554,0,0,0,7.6757-.7222,23.0319,23.0319,0,0,0,6.8626-2.3475,13.7618,13.7618,0,0,0,4.8767-4.4252,12.1159,12.1159,0,0,0,1.896-6.9535,11.9178,11.9178,0,0,0-.9031-4.7858,11.5272,11.5272,0,0,0-2.89-3.8828,28.8358,28.8358,0,0,0-4.9666-3.5222q-2.979-1.7143-7.1334-3.8828-4.1576-1.9856-7.5857-3.9736a27.4584,27.4584,0,0,1-6.05-4.6951,19.0858,19.0858,0,0,1-4.0636-6.4119,24.5778,24.5778,0,0,1-1.4444-8.9394q0-13.5454,9.7524-21.7634,9.753-8.2158,28.3553-8.2172a60.95,60.95,0,0,1,15.26,1.7152,41.973,41.973,0,0,1,9.1211,3.1606l-6.3212,13.7261a40.2767,40.2767,0,0,0-8.1272-3.07,44.6311,44.6311,0,0,0-12.4615-1.6261,33.3368,33.3368,0,0,0-6.8635.7231,19.5312,19.5312,0,0,0-6.23,2.4374,13.4964,13.4964,0,0,0-4.5151,4.5151,12.7068,12.7068,0,0,0-1.7161,6.7727,10.0053,10.0053,0,0,0,3.7928,8.0373,51.1146,51.1146,0,0,0,11.3778,6.5919,83.2937,83.2937,0,0,1,8.3979,4.4251,30.0435,30.0435,0,0,1,6.3212,5.0566,18.8075,18.8075,0,0,1,3.9736,6.5919,26.913,26.913,0,0,1,1.3545,9.03,29.5249,29.5249,0,0,1-2.89,13.3655,26.3434,26.3434,0,0,1-8.0364,9.5716,36.1834,36.1834,0,0,1-12.1908,5.6889,58.916,58.916,0,0,1-15.3514,1.8969,69.16,69.16,0,0,1-11.1079-.8131,73.1949,73.1949,0,0,1-8.6686-1.896,40.7118,40.7118,0,0,1-6.14-2.2575q-2.438-1.1735-3.7029-1.8969l6.5019-13.7261q1.262.7248,3.5222,1.806a51.5229,51.5229,0,0,0,12.3715,3.9737A42.3265,42.3265,0,0,0,531.1533,128.41Z" style="fill: #2a3252"/>
    <path id="fullLogo-7" data-name="fullLogo" d="M620.549,142.4977a43.535,43.535,0,0,1-15.8929-2.6191,31.4965,31.4965,0,0,1-11.1978-7.2242,28.877,28.877,0,0,1-6.6818-10.7463,38.7521,38.7521,0,0,1-2.1676-13.003,78.8363,78.8363,0,0,1,3.7928-24.3816,66.87,66.87,0,0,1,10.8363-20.77,52.64,52.64,0,0,1,17.1574-14.3584,48.48,48.48,0,0,1,22.9363-5.3273,38.0768,38.0768,0,0,1,12.7331,1.896,23.5728,23.5728,0,0,1,8.6687,5.1474A20.6983,20.6983,0,0,1,665.7,58.6065a24.3026,24.3026,0,0,1,1.6253,8.76,30.6792,30.6792,0,0,1-3.07,14.3576,30.0938,30.0938,0,0,1-8.1272,9.8433,37.37,37.37,0,0,1-11.83,6.14,104.1706,104.1706,0,0,1-14.0868,3.4313,133.5864,133.5864,0,0,1-14.81,1.7161q-7.4963.4524-14.1768.8131a19.5139,19.5139,0,0,0-.1807,2.3475V107.46a30.1462,30.1462,0,0,0,.9929,7.8565,14.6605,14.6605,0,0,0,3.7029,6.5019,18.4812,18.4812,0,0,0,7.495,4.4252,39.9442,39.9442,0,0,0,12.5514,1.6252,42.2268,42.2268,0,0,0,7.1343-.6323,60.1756,60.1756,0,0,0,7.0434-1.6252q3.34-.9908,5.96-1.9868a13.6013,13.6013,0,0,0,3.702-1.896l1.4445,14.2675a59.2752,59.2752,0,0,1-11.6485,4.2444A70.2636,70.2636,0,0,1,620.549,142.4977ZM603.3916,90.8446q10.4724-.36,19.1442-1.3545a61.122,61.122,0,0,0,14.99-3.4313,23.8048,23.8048,0,0,0,9.8433-6.5928q3.5212-4.1523,3.5222-10.8363a10.4222,10.4222,0,0,0-.6323-3.4313,8.9324,8.9324,0,0,0-2.1676-3.3413,11.5637,11.5637,0,0,0-4.2444-2.5283,19.5973,19.5973,0,0,0-6.6818-.993,26.44,26.44,0,0,0-11.83,2.7091,35.81,35.81,0,0,0-9.8424,7.1333,43.2854,43.2854,0,0,0-7.4049,10.2948A55.72,55.72,0,0,0,603.3916,90.8446Z" style="fill: #2a3252"/>
    <path id="fullLogo-8" data-name="fullLogo" d="M743.1775,140.1493H716.4484L739.024,45.1511h26.91ZM756.1814,33.5926a16.5709,16.5709,0,0,1-10.114-3.3413q-4.5161-3.3389-4.5151-10.204a16.8684,16.8684,0,0,1,1.5353-7.1334,18.8335,18.8335,0,0,1,4.0636-5.78,19.547,19.547,0,0,1,5.87-3.8828,17.7955,17.7955,0,0,1,7.1343-1.4454,16.5982,16.5982,0,0,1,10.1131,3.3414q4.5134,3.3439,4.5151,10.204a16.9125,16.9125,0,0,1-1.5344,7.1342,18.9316,18.9316,0,0,1-4.0636,5.78,19.5823,19.5823,0,0,1-5.87,3.8828A17.7607,17.7607,0,0,1,756.1814,33.5926Z" style="fill: #ef5455"/>
    <path id="fullLogo-9" data-name="fullLogo" d="M810.5409,142.6776a43.653,43.653,0,0,1-16.6151-2.889,30.7507,30.7507,0,0,1-11.6493-8.1272A35.073,35.073,0,0,1,775.323,119.29a50.31,50.31,0,0,1-2.3475-15.8029,69.7511,69.7511,0,0,1,3.5222-21.6725,61.9763,61.9763,0,0,1,10.3847-19.5058,55.5045,55.5045,0,0,1,16.7959-14.1768,46.1289,46.1289,0,0,1,22.7563-5.509,43.8435,43.8435,0,0,1,16.5252,2.89A30.6893,30.6893,0,0,1,854.6991,53.64a35.1463,35.1463,0,0,1,6.9534,12.3716A50.3931,50.3931,0,0,1,864,81.8144a71.4993,71.4993,0,0,1-3.4313,21.6725,62.6728,62.6728,0,0,1-10.114,19.505A53.0613,53.0613,0,0,1,833.7488,137.17,47.428,47.428,0,0,1,810.5409,142.6776Zm13.3654-77.2984a16.84,16.84,0,0,0-10.4755,3.4313,29.4108,29.4108,0,0,0-7.5849,8.67A42.657,42.657,0,0,0,801.24,88.9477a49.4884,49.4884,0,0,0-1.5354,11.83q0,9.21,2.89,14.1776,2.8876,4.9683,10.4756,4.9666a16.8245,16.8245,0,0,0,10.4747-3.4322,29.4313,29.4313,0,0,0,7.5857-8.6686,42.8168,42.8168,0,0,0,4.6051-11.4686,49.6009,49.6009,0,0,0,1.5353-11.8292q0-9.2106-2.89-14.1777Q831.4894,65.38,823.9063,65.3792Z" style="fill: #ef5455"/>
    <path id="fullLogo-10" data-name="fullLogo" d="M684.496,141.8741a16.5709,16.5709,0,0,1-10.114-3.3413q-4.516-3.3387-4.5151-10.204a16.8684,16.8684,0,0,1,1.5353-7.1334,18.8347,18.8347,0,0,1,4.0636-5.78,19.547,19.547,0,0,1,5.87-3.8828,17.7955,17.7955,0,0,1,7.1343-1.4453,16.5979,16.5979,0,0,1,10.1131,3.3413q4.5133,3.3441,4.5151,10.204a16.9125,16.9125,0,0,1-1.5344,7.1342,18.9316,18.9316,0,0,1-4.0636,5.78,19.5852,19.5852,0,0,1-5.87,3.8829A17.7632,17.7632,0,0,1,684.496,141.8741Z" style="fill: #ef5455"/>
  </g>
</svg>
