<?xml version="1.0" encoding="iso-8859-1"?>
<!-- Uploaded to: SVG Repo, www.svgrepo.com, Generator: SVG Repo Mixer Tools -->
<svg height="800px" width="800px" version="1.1" id="Layer_1" xmlns="http://www.w3.org/2000/svg" xmlns:xlink="http://www.w3.org/1999/xlink" 
	 viewBox="0 0 512.001 512.001" xml:space="preserve">
<path style="fill:#36495E;" d="M456.458,375.611H55.542c-9.425,0-17.067-7.641-17.067-17.067V125.359
	c0-27.63,22.479-50.109,50.109-50.109h334.831c27.63,0,50.109,22.479,50.109,50.109v233.185
	C473.525,367.969,465.884,375.611,456.458,375.611z"/>
<path style="fill:#2C3E50;" d="M423.416,75.25H255.997v300.361h200.462c9.425,0,17.067-7.641,17.067-17.067V125.359
	C473.525,97.729,451.046,75.25,423.416,75.25z"/>
<path style="fill:#FFDA79;" d="M409.145,328.297h-306.29c-9.425,0-17.067-7.641-17.067-17.067v-171.6
	c0-9.425,7.641-17.067,17.067-17.067h306.29c9.425,0,17.067,7.641,17.067,17.067v171.6
	C426.212,320.656,418.57,328.297,409.145,328.297z"/>
<path style="fill:#FFD155;" d="M409.145,122.563H255.997v205.733h153.148c9.425,0,17.067-7.641,17.067-17.067v-171.6
	C426.212,130.204,418.57,122.563,409.145,122.563z"/>
<path style="fill:#D1D3D4;" d="M459.447,436.751H52.552C23.575,436.751,0,413.177,0,384.2v-25.656
	c0-9.425,7.641-17.067,17.067-17.067h477.867c9.425,0,17.067,7.641,17.067,17.067V384.2
	C512,413.177,488.425,436.751,459.447,436.751z"/>
<path style="fill:#BCBEC0;" d="M494.933,341.477H255.997v95.274h203.452c28.978,0,52.553-23.575,52.553-52.552v-25.656
	C512,349.119,504.359,341.477,494.933,341.477z"/>
<g>
	<path style="fill:#FFC72D;" d="M309.228,211.107H202.773c-9.425,0-17.067-7.641-17.067-17.067c0-9.425,7.641-17.067,17.067-17.067
		h106.455c9.425,0,17.067,7.641,17.067,17.067C326.294,203.466,318.653,211.107,309.228,211.107z"/>
	<path style="fill:#FFC72D;" d="M355.752,270.249H156.248c-9.425,0-17.067-7.641-17.067-17.067c0-9.425,7.641-17.067,17.067-17.067
		h199.505c9.425,0,17.067,7.641,17.067,17.067C372.819,262.609,365.178,270.249,355.752,270.249z"/>
</g>
<g>
	<path style="fill:#FFBE00;" d="M309.228,176.974h-53.231v34.133h53.231c9.425,0,17.067-7.641,17.067-17.067
		C326.294,184.615,318.653,176.974,309.228,176.974z"/>
	<path style="fill:#FFBE00;" d="M355.752,236.116h-99.756v34.133h99.756c9.425,0,17.067-7.641,17.067-17.067
		C372.819,243.757,365.178,236.116,355.752,236.116z"/>
</g>
</svg>