<svg xmlns="http://www.w3.org/2000/svg" viewBox="0 0 538.77 538.83"><defs><style>.cls-1{fill:#d25a2f;}</style></defs><title>icoon</title><g id="Laag_2" data-name="Laag 2"><g id="Laag_1-2" data-name="Laag 1"><path class="cls-1" d="M536.29,233A269.13,269.13,0,0,0,455.71,74.9c-2.57-2.49-5.17-4.87-7.8-7.22A270,270,0,0,0,379.1,23.36c-2.78-1.23-5.56-2.42-8.38-3.57A269.57,269.57,0,0,0,104.86,56.05c-1.19.94-2.42,1.88-3.57,2.81s-2.39,1.92-3.54,2.89a269.77,269.77,0,0,0-54.4,61.15c-2,3-3.83,6-5.6,9.07a269.44,269.44,0,0,0,217.4,406.5q4.92.27,9.86.32a271.59,271.59,0,0,0,80.83-11c3.14-.94,6.28-1.92,9.39-3A269.35,269.35,0,0,0,536.29,233ZM396.58,58.25c1.88,1.12,3.72,2.28,5.56,3.43,1.56,1,3.07,2,4.59,3,.51.33,1,.69,1.52,1,1.8,1.23,3.61,2.49,5.38,3.79q5.64,4.07,11.05,8.45l-34.31,45.18A190.56,190.56,0,0,0,342.8,94.33L378,48.07C384.3,51.17,390.55,54.57,396.58,58.25ZM120.14,194.56l98.24,74.62L240.88,434c-69.78-12.13-126.92-68.15-137-142A166.25,166.25,0,0,1,120.14,194.56Zm119.62,62.16-107.88-82a168.29,168.29,0,0,1,38.75-40l89.68,68.15,68.15-89.71a168.87,168.87,0,0,1,48,28.17L294.55,249.24l24.52,179.65a166,166,0,0,1-27.08,6,170.66,170.66,0,0,1-27.71,1.49Zm-48.43-135a167.23,167.23,0,0,1,113.73-15.5l-49.12,64.62ZM318.46,255.53l74.65-98.24a166,166,0,0,1,41.76,89.53C444.94,320.64,404.93,390,341,420.37ZM236,25.17A245.4,245.4,0,0,1,356.35,38.71L320.12,86.42A189.91,189.91,0,0,0,171.5,106.69L123.82,70.46A245.39,245.39,0,0,1,236,25.17ZM72.61,121c.68-.94,1.37-1.84,2.09-2.74,1.45-1.92,3-3.76,4.48-5.6,0,0,.07-.07.07-.07,1.92-2.35,3.87-4.63,5.89-6.9l.69-.8c1.84-2.06,3.75-4.11,5.67-6.1l.65-.65c1.88-2,3.75-3.87,5.7-5.71a7.61,7.61,0,0,1,.84-.79c1.87-1.84,3.82-3.65,5.77-5.38.33-.33.69-.65,1-.94l46.27,35.14a190.92,190.92,0,0,0-38.07,40.49L68.49,126.59Q70.5,123.71,72.61,121ZM25.15,302.73A246.11,246.11,0,0,1,56.07,145.87l45.58,34.64A188.87,188.87,0,0,0,81.24,295.07C93,381.5,161.57,446.55,244.13,457.64L252,515.35C137.22,507.3,40.86,418,25.15,302.73Zm299,207.06q-7.69,1.74-15.49,3c-1.95.33-3.9.61-5.89.87-4.23.57-8.49,1-12.71,1.41-.73.07-1.45.14-2.14.18-.32,0-.65,0-1,.07-3.94.29-7.87.47-11.78.58h0l-7.73-56.56a195.36,195.36,0,0,0,27.67-1.77,186.51,186.51,0,0,0,27.12-5.75l7.73,56.6C328,508.89,326.08,509.36,324.13,509.79Zm28-8.09L344.21,444c76.54-32.83,125.11-113.81,113.34-200.2a189.12,189.12,0,0,0-50.39-105L441.8,93.21a246.72,246.72,0,0,1,71.84,142.85C529.39,351.34,460.51,463.13,352.09,501.7Z"/></g></g></svg>